<?xml version="1.0" encoding="UTF-8"?>
<svg xmlns="http://www.w3.org/2000/svg" viewBox="0 0 595.27557 841.88983">
  <defs>
    <style>
      .uuid-4eeac3dc-f81c-443e-bd1e-b07caef5505b {
        letter-spacing: -.02998em;
      }

      .uuid-24e118ad-a41d-45a6-8432-da816f7acd37 {
        letter-spacing: -.026em;
      }

      .uuid-591a2ebe-b84f-440f-b3a6-dff1b689b76d {
        stroke: #000;
      }

      .uuid-591a2ebe-b84f-440f-b3a6-dff1b689b76d, .uuid-1f021d42-440a-47b1-b178-4607445c5a28, .uuid-f5ab47a7-a63e-4f40-af1f-7d324f424c22 {
        fill: none;
        stroke-miterlimit: 10;
      }

      .uuid-8383f594-23b4-41b2-bb14-139becc4eabc {
        letter-spacing: .75785em;
      }

      .uuid-37bd7c99-ad6a-4f80-ad31-caf285d7475b {
        letter-spacing: -.01301em;
      }

      .uuid-8abf46c5-b78c-436f-95d0-7cf7fbfd014e {
        letter-spacing: .22538em;
      }

      .uuid-bda19a94-5131-4f0d-a5e5-8fb4513223a1 {
        letter-spacing: -.01899em;
      }

      .uuid-1f021d42-440a-47b1-b178-4607445c5a28 {
        stroke: #010101;
      }

      .uuid-5b8c91da-9e89-42ba-8990-64ad7d65103e {
        letter-spacing: .35307em;
      }

      .uuid-f5ab47a7-a63e-4f40-af1f-7d324f424c22 {
        stroke: #1d1d1b;
      }

      .uuid-6b68c1ac-12b7-4acd-990e-79a074ceff79 {
        letter-spacing: .47184em;
      }

      .uuid-bf282948-6b91-424d-8b6f-9885e18816f1 {
        letter-spacing: .00004em;
      }

      .uuid-81f757d5-5587-4f0b-ad74-b91baa0d5166 {
        letter-spacing: .22534em;
      }

      .uuid-57ca65c3-aca1-4ef2-a51a-0ee55de8b4c1 {
        letter-spacing: -.01298em;
      }

      .uuid-40e5585d-12ba-4c08-a4d9-af8ff288bac4 {
        letter-spacing: -.01299em;
      }

      .uuid-0862ea2a-d5b6-464f-9790-ab32b8a7c678 {
        font-size: 20px;
      }

      .uuid-0862ea2a-d5b6-464f-9790-ab32b8a7c678, .uuid-40c20495-7448-45ca-8d4b-a03262d11659, .uuid-bb6eb407-0a3d-4e39-953a-253e58d324b5, .uuid-25de640c-53ed-4e91-a993-e4694900c4d4 {
        fill: #1d1d1b;
      }

      .uuid-0862ea2a-d5b6-464f-9790-ab32b8a7c678, .uuid-bb6eb407-0a3d-4e39-953a-253e58d324b5 {
        font-family: Lato-Regular, Lato;
      }

      .uuid-4f9cbec8-4368-42df-a957-98455f8cff92 {
        letter-spacing: -.019em;
      }

      .uuid-645f2503-3949-4e4d-88d3-b04d77efc9e1 {
        letter-spacing: .18416em;
      }

      .uuid-f3d15cf3-70d1-44e6-8567-56063b5a7ae3 {
        letter-spacing: .75789em;
      }

      .uuid-31db1e76-4aa4-4982-9dba-55ecbb167f3a {
        letter-spacing: .35311em;
      }

      .uuid-36b309b4-f52f-49b0-8f5c-14770292e5ac {
        letter-spacing: -.02598em;
      }

      .uuid-97431106-c140-43bf-89b0-ebbc06f9871d {
        letter-spacing: -.01599em;
      }

      .uuid-40c20495-7448-45ca-8d4b-a03262d11659 {
        font-family: Lato-Bold, Lato;
        font-size: 28px;
        font-weight: 700;
      }

      .uuid-9e318b7e-0771-438a-85da-e5521e72dde1 {
        letter-spacing: .4718em;
      }

      .uuid-a32aed4c-dec0-4a20-abf2-07ba007bd33e {
        letter-spacing: -.02999em;
      }

      .uuid-b1a622c3-2c65-4c9a-bf9d-98da4774402c {
        letter-spacing: .184em;
      }

      .uuid-bb6eb407-0a3d-4e39-953a-253e58d324b5 {
        font-size: 12px;
      }

      .uuid-e591e32d-1bfd-4e5d-b397-5d1a8b99d72e {
        letter-spacing: -.00004em;
      }

      .uuid-42b84f5c-a275-415c-befc-c5e0f09c21d7 {
        letter-spacing: .03349em;
      }

      .uuid-bd2d4dfd-ab2a-4b65-b220-4d6769f091fa {
        letter-spacing: .18408em;
      }

      .uuid-c8a6f11c-ef0a-4889-a176-48036185bb1c {
        letter-spacing: .18404em;
      }
    </style>
  </defs>
  <g id="uuid-656d1ebd-a6d1-48cb-b6c7-5e4736ac6a8a" data-name="Ebene 1">
    <g>
      <g id="uuid-1ff16310-561b-4364-94bf-379833da83f2" data-name="uuid-4e82a2fe-68b7-4cae-9e77-61bc21c9e746">
        <path class="uuid-591a2ebe-b84f-440f-b3a6-dff1b689b76d" d="m566.70681,794.95792c-1.96286-2.65977-4.63796-5.91232-8.13163-9.28661-3.87133-3.73904-7.60819-6.52699-12.76139-9.8901-11.85335-7.73579-22.17968-12.62766-25.20383-14.03756-8.55126-3.98679-19.95424-8.68412-33.93865-12.81461"/>
        <path class="uuid-591a2ebe-b84f-440f-b3a6-dff1b689b76d" d="m598.16753,815.60885c-8.57397-5.58545-17.45867-10.74447-26.3295-15.83971"/>
        <path class="uuid-591a2ebe-b84f-440f-b3a6-dff1b689b76d" d="m266.47854,800.26819c-12.07188,5.16521-26.97926,13.29502-41.61431,26.23964-5.81804,5.14598-12.05684,12.75908-16.2708,17.70648"/>
        <path class="uuid-591a2ebe-b84f-440f-b3a6-dff1b689b76d" d="m351.35659,749.18437c-14.17057,4.35694-22.37504,8.13403-31.73888,12.55928-17.47465,8.2583-17.14814,8.61394-30.30836,16.90885-2.06541,1.3018-5.94397,3.23205-10.84718,7.65686-3.12275,2.81808-5.11073,6.78113-6.22829,9.23414"/>
      </g>
      <path class="uuid-f5ab47a7-a63e-4f40-af1f-7d324f424c22" d="m279.06,845.32422c-1.48469,0-2.86646-.94303-3.3558-2.43117-1.81533-5.52131-3.5214-11.12312-5.0705-16.65018-2.7089-9.66603-3.45355-13.77739-3.82386-17.6116-.32891-3.40985-.41344-6.8703-.25128-10.28704.092-1.94816,1.7423-3.44665,3.69621-3.36155,1.94931.09315,3.45412,1.74805,3.36155,3.69736-.14605,3.07864-.06958,6.19868.22713,9.27272.27601,2.86128.75845,6.26768,3.59385,16.38337,1.52092,5.42586,3.19652,10.92761,4.97964,16.35117.60894,1.8527-.39964,3.84916-2.25291,4.45868-.36629.12075-.73832.17826-1.10403.17826Z"/>
      <g>
        <path class="uuid-f5ab47a7-a63e-4f40-af1f-7d324f424c22" d="m571.83807,799.76917c-.09069.83513-.20275,1.78777-.32412,2.81867-.21621,1.8366-.46231,3.93081-.66587,6.04342-.37146,3.83651-1.11553,7.94673-3.82386,17.6116-1.55944,5.55926-3.26609,11.16107-5.07165,16.65133-.48876,1.48699-1.8711,2.43002-3.35465,2.43002-.36686,0-.73832-.0575-1.10518-.17826-1.8527-.60952-2.86128-2.60597-2.25176-4.45983,1.7722-5.39135,3.4478-10.89311,4.97964-16.35117,2.83368-10.11339,3.31785-13.51979,3.59385-16.38337.20931-2.16206.46116-4.30802.68197-6.18948.19091-1.61695.35766-3.03149.44966-4.07572.10414-1.18916.78863-2.18804,1.7479-2.74584"/>
        <path class="uuid-f5ab47a7-a63e-4f40-af1f-7d324f424c22" d="m566.69402,794.94056c.60855-.35386,1.32769-.53022,2.07941-.46505,1.94356.1702,3.3811,1.88375,3.21089,3.82731-.03756.43217-.08741.92453-.14625,1.46635"/>
      </g>
      <g id="uuid-4419562e-a2c5-4319-ae42-693e430bf7dc" data-name="uuid-981b8534-187c-47b8-9f4d-08b5aea528ec">
        <path class="uuid-1f021d42-440a-47b1-b178-4607445c5a28" d="m352.70188,699.84393c-.3033,11.09338-.17571,20.64662-.30328,25.44996-.46391,17.46718-2.09272,15.09508,0,43.78759.81063,11.11443,2.05329,26.69454,8.61394,45.22327,4.71232,13.30874,8.56621,21.89084,14.11732,28.63345"/>
        <path class="uuid-1f021d42-440a-47b1-b178-4607445c5a28" d="m463.18361,844.37382c2.64585-4.61603,8.34474-15.05558,10.52815-19.3016,8.12551-15.80151,9.9452-31.81394,11.00676-41.15554.17244-1.51749.33505-3.1537.95707-15.31373,1.43315-28.01887,2.14977-42.02834,1.70647-43.73828-.07192-.27736.0091-.00448-.07192-.27736"/>
      </g>
      <g id="uuid-882ac20b-d5e1-4e0d-925d-a51fe36f4f70" data-name="uuid-c2c91b23-8951-4309-b645-6874843a9c9e">
        <path class="uuid-1f021d42-440a-47b1-b178-4607445c5a28" d="m254.66134,493.61107c-.18766.17334-5.91572,3.93454-9.6979,7.7998-4.96798,5.07705-7.10265,10.26126-8.61396,14.03756-1.18215,2.95382-3.96674,10.68943-3.82843,21.05634.05427,4.0659.2779,13.16274,5.42362,23.28958,1.18656,2.33516,4.924,9.23021,12.44238,15.63272,2.57991,2.19703,7.77338,6.53306,15.95177,9.25206,6.85097,2.27769,12.8554,2.44283,16.65466,2.24367,1.98542,5.51472,5.17791,14.11385,9.50624,24.55528,6.49511,15.6685,10.99315,26.51939,18.50404,39.56038,5.99351,10.40644,12.45883,21.63207,24.24669,33.81773,5.78838,5.98372,10.84322,10.11396,17.45032,14.98914"/>
        <path class="uuid-1f021d42-440a-47b1-b178-4607445c5a28" d="m487.38318,724.86641c46.61682-31.86641,82.61682-78.86641,102.61682-133.86641,0-1,4,0,5.80122-.45249"/>
        <path class="uuid-1f021d42-440a-47b1-b178-4607445c5a28" d="m352.70074,699.84534c2.52741,1.8649,5.28193,3.83883,8.39157,6.06716,15.40471,11.03904,25.86412,18.40742,41.79359,23.60864,3.15948,1.03159,12.02983,3.7724,23.92765,5.1046,12.75872,1.4286,22.37768.49601,30.30836-.31902,13.54133-1.39163,19.1158-3.63715,21.05631-4.46648,3.69333-1.57858,6.72373-3.37033,9.20494-4.97376"/>
      </g>
      <g id="uuid-37e8a564-8a9c-4219-96ab-f8064fc4f270" data-name="uuid-4f937c5a-ac3d-4ddd-a1d5-7be03d633733">
        <path class="uuid-1f021d42-440a-47b1-b178-4607445c5a28" d="m394.31261,177.36978c-3.39943-1.72892-7.55517-3.41666-13.20085-4.6451-8.64161-1.88032-15.92425-1.33653-20.39937-.67367,2.36181-4.80424,5.08487-8.04242,6.99988-10.01399,6.22183-6.40583,13.28029-9.0859,20.01951-11.6448,10.71411-4.06824,13.5978-4.17338,13.16066-4.16575-5.53409-1.27061-13.85987-2.17734-22.81153.73613-6.39276,2.08066-11.09897,5.45685-14.27679,7.73659-4.57203,3.27997-7.92175,6.56448-10.12874,8.9567-2.655-5.70063-6.4938-12.20821-12.04422-18.6075-5.38449-6.20797-10.46396-10.10543-12.68167-11.72453-2.64787-1.93313-6.10283-4.42532-11.24599-6.69979-5.3556-2.36842-9.98651-3.37083-12.68167-3.82843-1.34628-.22862-7.86234-1.281-16.27076-.23923-6.62083.82031-16.84812,3.24049-31.58449,11.96384-10.66799,6.31499-27.11249,16.29246-40.91631,36.37003-11.26451,16.38417-15.35944,31.62381-16.74934,37.56641-3.33206,14.24639-3.01182,25.91424-2.63206,31.58446,1.02783,15.34738,5.16089,26.612,7.65686,33.25944,3.47811,9.26318,7.40306,16.51391,10.3702,21.45176-.59151,1.27113-1.21341,2.87892-1.67651,4.7889-.5299,2.18544-.69629,4.12494-.71119,5.65118-4.38292.99951-9.6801,1.86634-15.71912,2.1652-5.33458.264-10.11244.02865-14.17488-.4066-.19571-.02096-.28288.23665-.1121.33449,3.13285,1.79503,7.53932,3.89761,13.0906,5.33618,6.31143,1.63554,11.76803,1.80776,15.53624,1.64101-.50485,3.83829-1.12742,12.67149,3.20706,22.52592,4.37346,9.94298,11.41512,15.51837,14.80938,17.84476.43594-14.21415,1.88872-24.86338,2.57808-29.48957,2.37921-15.96622,5.01597-33.66079,14.83512-54.55502,9.76505-20.77902,21.7458-34.32194,26.16091-39.08188,17.98958-19.39446,36.43567-28.8794,45.94111-33.65819,21.79227-10.95592,40.21146-14.45443,56.30968-17.38747,6.17863-1.12571,12.68454-2.29011,19.74777-3.14076"/>
      </g>
      <g id="uuid-53728e60-7d03-4ca3-a06e-c3b614576737" data-name="uuid-1619ef9c-a06f-4be4-9cea-9647c37298b7">
        <path class="uuid-1f021d42-440a-47b1-b178-4607445c5a28" d="m595.25634,362.09639c-.53415-1.79715-1.06417-3.53352-1.5873-5.20855-7.91754-25.35143-17.82476-48.07326-34.77484-69.86874-17.05746-21.93359-32.06191-31.11791-37.96523-34.45582-13.82451-7.81673-26.76278-11.29114-35.75917-12.96825-6.83992,15.84228-17.32528,34.68614-33.47149,53.16666-8.99484,10.2952-25.0922,28.37898-51.68369,42.11268-7.14843,3.69196-22.41718,11.44226-43.38885,15.63272-15.46284,3.08972-30.66985,7.52577-46.26007,9.8901-2.17388.32967-8.54508,1.23523-14.99471,5.74265-.297.20757-1.65773,1.16605-3.19035,2.55226-7.95823,7.19801-11.98607,18.18191-12.44237,19.46115-12.59484,35.31059-15.31366,48.17423-15.31369,48.17437-3.25158,15.38431-6.89978,35.10553-9.90355,58.36319-.98343-.28837-4.14259-9.34936-5.09111-12.26257-1.59859-4.90985-1.90436-7.40196-4.78554-18.34453-1.02-3.87396-1.676-6.19851-2.07373-7.65683-6.3994-23.46361-10.04961-49.92891-10.04961-49.92902-.66296-4.80663-1.32788-9.62755-1.89835-14.73543-.87692-7.85167-1.53065-16.38141-1.61102-26.57963-.02814-3.57153.01684-6.98939.11434-10.22491"/>
        <path class="uuid-1f021d42-440a-47b1-b178-4607445c5a28" d="m394.71805,177.32051c10.5746-1.27353,22.39833-1.84379,36.24298-.52808,11.94852,1.1355,31.08404,3.13796,52.64084,14.19707,10.8353,5.55871,19.05768,11.7513,24.69006,16.55979,7.23371-1.50859,22.90524-3.86887,41.03119,1.94424,14.18097,4.54794,23.31886,11.9995,29.98934,17.5469,2.04162,1.69787,8.41083,7.11718,15.98778,16.67888"/>
      </g>
      <g id="uuid-39cc2070-fe1c-4860-8e88-ecaffe1589f3" data-name="uuid-96aba2af-e75b-40d6-820a-c146780328a1">
        <path class="uuid-1f021d42-440a-47b1-b178-4607445c5a28" d="m253.69207,494.29399c1.71864.89909,7.20189,3.1823,9.93494,3.92653,2.65213.72221,4.11197,1.09936,5.50338.47854,2.31777-1.03416,2.99254-4.18905,3.34985-5.98188,2.68343-13.46288,2.39275-18.66348,2.39275-18.66359s.41882-9.79713.55833-24.48596c.05909-6.22176-.7976-16.58982,1.83448-30.30836,1.7855-9.30625,4.2229-15.55932,7.8961-21.69439,4.35614-7.2757,8.35819-10.42722,10.76746-12.28284,6.05015-4.65986,11.78793-6.92032,20.33847-10.28892,4.61949-1.81991,3.90989-1.27328,11.4853-4.0677,9.04611-3.33693,14.03633-5.17771,20.33854-8.37467,8.0972-4.10749,2.59077-1.08922,9.94921-5.44976,4.30699-2.55228,4.52699-2.46754,6.94081-4.44808,3.35352-2.75156,3.77796-5.09937,3.77796-5.09937"/>
      </g>
      <g id="uuid-08f27fda-45ea-4a0c-b26b-d3b09c0627a7" data-name="uuid-3c5fe6dd-d443-4513-a136-ef9179556b7a">
        <path class="uuid-1f021d42-440a-47b1-b178-4607445c5a28" d="m251.02511,532.59655c-.07405-1.10846-.19211-4.32177,1.03686-7.73662.472-1.31155,1.4885-4.03156,4.14747-6.30094,1.60007-1.36564,2.93015-2.21591,4.7855-2.63206,1.60017-.35888,2.31801-.40376,4.307-.7178.27479-.0434.70167-.33639.87735-.7976.22018-.57793-.06481-1.32711-.55832-1.67495-.40578-.28599-.88108-.2353-1.03686-.23927-3.33491-.08474-3.16237-.2466-5.26408.23927-1.37206.31718-4.22826.97747-6.85927,3.27014-3.11478,2.71423-4.05842,6.09937-4.626,8.1354-.00004.00011-1.11705,4.00715-.39882,10.28888.27924,2.44222.27916,2.49244.60817,4.13749.10824.54121.13459.44864.34046.8194.27426.49392,1.27425.69062,1.60367.62621.52742-.10312.91848-.32007,1.03686-.39878,1.12525-.74817.2002-4.0225,0-7.01878Z"/>
      </g>
      <g id="uuid-4ef6259b-2f37-491f-ae22-bbc9a8cb1b32" data-name="uuid-ea1fd1cb-13ec-43fd-afe1-34aebf556a2f">
        <path class="uuid-1f021d42-440a-47b1-b178-4607445c5a28" d="m315.52981,406.31389c7.92418-.50347,18.11481-.71046,29.92976.18395,6.17483.46745,15.43872,1.20425,27.11798,3.8284,8.76926,1.97032,20.46765,5.35683,33.65826,11.4853l-.47854,4.7855c-4.56367-1.43312-11.31243-3.40279-19.6207-5.26408-5.6612-1.26826-7.78432-1.53139-25.36335-4.46648-18.77692-3.13507-20.98951-3.60877-27.75603-4.46652-7.87743-.99859-14.42827-1.56721-18.94061-1.89894l.15738-.5337.91723-3.11059s.06986-.23692.14762-.52804c.07678-.00496.15377-.00989.23098-.0148Z"/>
        <path class="uuid-1f021d42-440a-47b1-b178-4607445c5a28" d="m575.84041,401.69571c.31207.00742.62015.01457.92415.02135.08997.28758.16977.52136.16977.52136l1.04773,3.06911.17977.52659c-4.49432.52193-11.01532,1.36654-18.84357,2.69676-6.72427,1.14262-9.55227,1.19295-28.18012,5.11781-17.43948,3.67452-18.91221,4.54338-24.51484,6.04947-8.22231,2.21031-14.88188,4.46312-19.381,6.0876l-1.08813-5.80868c12.89827-7.17829,23.78357-10.18342,32.46185-12.52212,11.55808-3.11482,21.36721-4.21736,27.51679-4.94505,11.42822-1.35231,21.83666-1.0012,29.7076-.81418Z"/>
      </g>
      <g id="uuid-91c32df8-ef75-4111-9bce-81c51543d0ec" data-name="uuid-6e10c90e-2f52-49e6-aa32-c8f6c39f97d2">
        <path class="uuid-1f021d42-440a-47b1-b178-4607445c5a28" d="m292.49971,443.98449c1.68867-4.74019,3.82713-8.17042,5.42359-10.36868,2.46626-3.39597,4.2626-4.71048,5.42359-5.42359,1.89638-1.16478,3.617-1.6582,4.62599-1.91422,10.45435-2.65285,36.98071-3.28841,47.53631-3.66892,2.14587-.07734,1.48796-.06878,3.98794-.15951,24.34619-.88371,33.41894-.7577,41.31505-.31902.37389.02076,1.44205.10745,2.63206.27916,3.41534.4928,6.36986,2.05351,8.3747,3.54927,1.97112,1.47063,4.2435,3.16605,5.90216,6.22118,1.40622,2.59021,1.72409,4.9657,1.91414,6.85927.68231,6.79912.30761,13.27932-.63805,21.53488-.92248,8.0533-1.76431,12.34925-2.07373,13.87805-1.39293,6.88256-2.64108,10.28975-3.0308,11.32575-.71098,1.88981-2.12991,5.36383-4.62606,9.25202-1.8332,2.85551-3.06228,4.08835-3.82843,4.78554-.63668.57941-2.21865,1.94018-5.10453,3.34986-1.66892.81525-3.90534,1.71105-9.57108,2.87132-1.34015.27443-4.78825.95606-12.44237,1.91422-1.56652.19609-5.04779.73084-8.45442.95711-8.79473.58414-14.52288.78388-27.27756.79756-.00014,0-9.81327.01051-21.05631-.79756-.25786-.01852-2.35354-.17457-5.10453-.63808-2.43673-.41055-3.68726-.62902-5.26411-1.27613-.71047-.29158-2.5301-1.09622-4.46648-2.71181-.87497-.73001-2.19324-1.97556-3.82843-4.46648-1.84832-2.81558-2.77294-5.19833-3.82843-7.97589-2.57494-6.77587-3.86237-10.16382-4.30697-11.64481-.83298-2.77482-2.18833-7.35903-3.03084-13.55899-.47579-3.50136-1.033-7.77579-.63808-13.39948.26671-3.79821.8797-6.95809,1.43568-9.25202Z"/>
        <g id="uuid-d9094f2d-21bf-4e81-b66c-f214b40dbf00" data-name="uuid-32f32164-6792-44fc-bb26-a74c94ef1367">
          <path class="uuid-1f021d42-440a-47b1-b178-4607445c5a28" d="m595.78661,430.47629c-4.78661-5.47629-9.78661-8.47629-16.78661-9.47629-26-1-52-6-79-4-6,1-12,1-16,7-9,15-7,32-3,48,2,13,9,25,21,29,25,9,50,4,75,1,12-1,16-14,19.01557-23.99777"/>
        </g>
        <g id="uuid-211d9c32-545a-4aa5-b71a-e5062bbfb42e" data-name="uuid-cc272fc8-d332-409b-afb1-ccdeb20023b5">
          <path class="uuid-1f021d42-440a-47b1-b178-4607445c5a28" d="m419.63922,456.15126c1.8745-1.0035,6.35058-3.44672,9.48739-4.74917,2.39311-.99365,4.91924-2.04253,8.37463-2.95108,4.23389-1.11323,7.56393-1.41127,9.73059-1.59519,2.93202-.24887,6.71286-.54858,11.56502.07976,3.59079.465,6.24407,1.24082,9.09254,2.07373,3.45864,1.01134,8.52893,3.22506,10.60168,4.08541"/>
          <line class="uuid-1f021d42-440a-47b1-b178-4607445c5a28" x1="255.33207" y1="495.18965" x2="291.85937" y2="467.7364"/>
        </g>
      </g>
    </g>
  </g>
  <g id="uuid-1a558b4a-e6e6-481d-9016-a2c25eaf1d74" data-name="Ebene 2">
    <text class="uuid-0862ea2a-d5b6-464f-9790-ab32b8a7c678" transform="translate(14.38525 34.12402)"><tspan x="0" y="0">#IchBinHanna</tspan><tspan x="0" y="24">#IchBinR</tspan><tspan class="uuid-37bd7c99-ad6a-4f80-ad31-caf285d7475b" x="80.25928" y="24">e</tspan><tspan x="90.479" y="24">yhan</tspan><tspan x="0" y="48">#Wiss</tspan><tspan class="uuid-bda19a94-5131-4f0d-a5e5-8fb4513223a1" x="54.45898" y="48">Z</tspan><tspan x="66.55908" y="48">eit</tspan><tspan class="uuid-36b309b4-f52f-49b0-8f5c-14770292e5ac" x="89.61865" y="48">V</tspan><tspan x="102.69873" y="48">G</tspan><tspan x="0" y="72">#Profs</tspan><tspan class="uuid-4eeac3dc-f81c-443e-bd1e-b07caef5505b" x="58.41895" y="72">F</tspan><tspan x="69.13916" y="72">uerHanna</tspan><tspan x="0" y="96">#Profs</tspan><tspan class="uuid-4eeac3dc-f81c-443e-bd1e-b07caef5505b" x="58.41895" y="96">F</tspan><tspan x="69.13916" y="96">uerR</tspan><tspan class="uuid-40e5585d-12ba-4c08-a4d9-af8ff288bac4" x="111.67871" y="96">e</tspan><tspan x="121.89893" y="96">yhan</tspan><tspan x="0" y="120">#Research</tspan><tspan class="uuid-97431106-c140-43bf-89b0-ebbc06f9871d" x="92.77881" y="120">W</tspan><tspan x="112.83887" y="120">onderland</tspan></text>
    <text class="uuid-40c20495-7448-45ca-8d4b-a03262d11659" transform="translate(13.91106 618.50914)"><tspan x="0" y="0">aktuell befristet bis:</tspan></text>
    <g>
      <path class="uuid-25de640c-53ed-4e91-a993-e4694900c4d4" d="m15.75977,669.94629v-14.36426h2.11377c.44824,0,.74219.20996.88232.62988l.23779,1.13477c.28906-.29883.59473-.56934.91699-.8125.32178-.24219.6626-.45215,1.02197-.62988.35938-.17676.74414-.3125,1.15479-.40625.41064-.09277.85889-.13965,1.34424-.13965.78418,0,1.479.13281,2.08594.39844.60645.2666,1.11328.63965,1.51904,1.12012.40576.48145.71387,1.05469.92383,1.72266.20996.66699.31494,1.40234.31494,2.20508v9.1416h-3.45801v-9.1416c0-.87793-.20264-1.55664-.60889-2.03711-.40576-.48047-1.01465-.72168-1.82666-.72168-.59766,0-1.15771.13574-1.68018.40625-.52295.27051-1.01758.63965-1.48389,1.10645v10.3877h-3.45801Z"/>
      <path class="uuid-25de640c-53ed-4e91-a993-e4694900c4d4" d="m42.93359,669.94629h-1.5542c-.32666,0-.58301-.04883-.77002-.14746-.18652-.09766-.32666-.2959-.41992-.59473l-.30811-1.02148c-.36377.32617-.7207.61328-1.0708.86035-.3501.24805-.71191.45508-1.08496.62305-.37354.16797-.77002.29395-1.18994.37793s-.88672.12598-1.3999.12598c-.60693,0-1.16699-.08203-1.68018-.24512-.51318-.16406-.95459-.41016-1.32275-.7373-.36914-.32812-.65625-.73535-.86133-1.22266-.20508-.48633-.30811-1.05371-.30811-1.69922,0-.54297.14258-1.0791.42725-1.6084s.7583-1.00684,1.4209-1.43262c.6626-.42676,1.54443-.78027,2.646-1.06055,1.10107-.28125,2.46875-.42188,4.10205-.42188v-.84668c0-.96777-.20312-1.68555-.60889-2.15137-.40625-.46484-.99658-.69824-1.771-.69824-.56006,0-1.02686.06543-1.3999.19629-.37354.13086-.69824.27832-.97314.44141-.27539.16309-.52979.31055-.76318.44043-.2334.13086-.48975.19629-.77002.19629-.2334,0-.43408-.06055-.60205-.18164s-.30322-.27051-.40576-.44824l-.62988-1.10645c1.65186-1.51172,3.64453-2.26758,5.97803-2.26758.83984,0,1.58887.1377,2.24658.41309.6582.27539,1.21582.6582,1.67334,1.14746.45703.49023.80469,1.07617,1.04297,1.75781.23779.68066.35693,1.42773.35693,2.23926v9.07227Zm-6.72021-2.15625c.35498,0,.68164-.03223.97998-.09668.29883-.06348.58105-.16016.84717-.28906s.52246-.28711.77002-.47559c.24707-.1875.49707-.41113.74902-.66797v-2.4043c-1.00781,0-1.85059.06348-2.52686.19043-.67676.12695-1.2207.28906-1.63135.48633s-.70215.42773-.875.69141c-.17236.2627-.25879.54883-.25879.85938,0,.61133.17969,1.04785.53906,1.31152s.82812.39453,1.40674.39453Z"/>
      <path class="uuid-25de640c-53ed-4e91-a993-e4694900c4d4" d="m56.4292,658.62012c-.10254.13086-.20312.2334-.30078.30859-.09814.07422-.24072.11133-.42725.11133-.17725,0-.3501-.05371-.51807-.16113-.16797-.10645-.36865-.22852-.60156-.36328-.23389-.13574-.51123-.25684-.83301-.36426-.32227-.10742-.72119-.16113-1.19727-.16113-.60693,0-1.13867.11035-1.59619.3291-.45703.21973-.8374.53418-1.14062.94531-.30371.41016-.52979.90723-.6792,1.49023-.14941.58398-.22412,1.24414-.22412,1.98145,0,.76562.08154,1.44629.24512,2.04395.16309.59766.39893,1.09863.70703,1.50488s.68115.71387,1.12012.92383c.43848.20996.93311.31543,1.48389.31543s.99609-.06738,1.33691-.20312c.34082-.13477.62793-.28418.86133-.44824.23291-.16309.43604-.3125.60889-.44824.17236-.13477.36621-.20215.58105-.20215.27979,0,.48975.10742.62988.32129l.99414,1.26074c-.38281.44727-.79834.82324-1.24609,1.12695-.44824.30273-.9126.5459-1.39307.72754-.48096.18164-.97803.31055-1.49121.38477-.51318.0752-1.02197.1123-1.52588.1123-.88672,0-1.72217-.16602-2.50586-.49707-.78418-.33105-1.46777-.81445-2.05127-1.44922-.58301-.63379-1.04541-1.41113-1.38574-2.33105-.34082-.91895-.51123-1.9668-.51123-3.14258,0-1.05469.15186-2.03223.45508-2.93262.30322-.90137.74902-1.68066,1.33691-2.33887.58838-.65723,1.31641-1.17285,2.18408-1.54688.86816-.37305,1.8667-.55957,2.99609-.55957,1.07324,0,2.01367.17285,2.8208.51758.80762.3457,1.5332.83984,2.17725,1.48438l-.91016,1.25977Z"/>
      <path class="uuid-25de640c-53ed-4e91-a993-e4694900c4d4" d="m59.69141,669.94629v-20.80371h3.45801v7.99414c.56006-.53223,1.17578-.96191,1.84766-1.28809.67236-.32715,1.46094-.49023,2.36621-.49023.78418,0,1.479.13281,2.08594.39844.60645.2666,1.11328.63965,1.51904,1.12012.40576.48145.71387,1.05469.92383,1.72266.20996.66699.31494,1.40234.31494,2.20508v9.1416h-3.45801v-9.1416c0-.87793-.20264-1.55664-.60889-2.03711-.40576-.48047-1.01465-.72168-1.82666-.72168-.59766,0-1.15771.13574-1.68018.40625-.52295.27051-1.01758.63965-1.48389,1.10645v10.3877h-3.45801Z"/>
      <path class="uuid-25de640c-53ed-4e91-a993-e4694900c4d4" d="m85.98291,655.33008c.61621,0,1.19482.06348,1.73633.18945.54102.12598,1.03564.31055,1.48389.55273h4.12988v1.28809c0,.21484-.05615.38281-.16797.50391s-.30322.20508-.57422.25195l-1.2876.23828c.09277.24219.16553.49902.2168.76953.05127.27148.07715.55566.07715.85449,0,.70898-.14258,1.35059-.42725,1.9248s-.67676,1.06152-1.17578,1.46289c-.49951.40137-1.09229.71191-1.77832.93066-.68555.21973-1.43018.3291-2.23291.3291-.5415,0-1.06885-.05078-1.58203-.15332-.44775.27246-.67188.57812-.67188.91602,0,.29199.13281.50586.39893.6416.26611.13672.61621.2334,1.05029.28906.43359.05664.92578.08496,1.47705.08496.55029,0,1.11475.02344,1.69385.07031.57861.04688,1.14307.12891,1.69385.24609s1.04297.30176,1.47705.55469.78418.59668,1.0498,1.03223c.26611.43555.39941.99512.39941,1.67871,0,.63672-.15674,1.25391-.46924,1.85352-.31299.59961-.76514,1.13281-1.35791,1.60156-.59277.46777-1.31836.84473-2.17725,1.13086-.8584.28516-1.83838.42773-2.93994.42773-1.0918,0-2.03906-.10449-2.8418-.31445s-1.46777-.49023-1.99512-.83984c-.52734-.35059-.92188-.75391-1.18311-1.21094-.26123-.45801-.3916-.93359-.3916-1.42871,0-.67188.20508-1.23633.61572-1.69336.41064-.45801.97998-.82129,1.70801-1.09277-.35498-.19531-.63916-.45703-.854-.7832-.21484-.32715-.32178-.75195-.32178-1.27441,0-.21484.03711-.43652.11182-.66504s.18896-.45508.34277-.67871c.1543-.22461.34766-.43652.58105-.6377.2334-.2002.50879-.37988.82617-.53809-.72803-.39258-1.2998-.91504-1.71484-1.56836-.41553-.65332-.62305-1.41895-.62305-2.2959,0-.70898.14209-1.35156.42676-1.9248.28467-.57422.68115-1.06445,1.18994-1.4707.50879-.40527,1.11084-.71582,1.80615-.93066s1.45361-.32227,2.2749-.32227Zm3.79395,15.21973c0-.28613-.08398-.51953-.25195-.7002-.16797-.18164-.39648-.32227-.68604-.42188-.28906-.10059-.62744-.17383-1.01465-.22168-.3877-.04785-.79834-.07129-1.23242-.07129h-1.34375c-.46191,0-.90771-.05176-1.33691-.1543-.39209.21484-.70703.46875-.94531.7627-.23779.29395-.35693.63184-.35693,1.01465,0,.25293.06299.48828.18896.70703.12598.21973.32666.4082.60205.56738.27539.1582.63232.28223,1.07129.37109.43848.08887.9751.13281,1.60986.13281.64404,0,1.19922-.0498,1.66602-.15039.4668-.09961.85156-.2373,1.15479-.41406s.52539-.38574.66504-.62891c.14014-.24316.20996-.50781.20996-.79297Zm-3.79395-8.13574c.4292,0,.80273-.05762,1.12012-.1748.31738-.11621.58105-.27734.79102-.4834.20996-.20508.36865-.45215.47607-.74121.10693-.28906.16113-.60742.16113-.95215,0-.70898-.2124-1.27148-.63721-1.6875-.4248-.41504-1.06201-.62305-1.91113-.62305s-1.48633.20801-1.91064.62305c-.4248.41602-.63721.97852-.63721,1.6875,0,.33594.05371.64844.16113.9375.10693.29004.26562.53906.47607.74902.20996.20996.47559.37402.79785.49023.32178.11719.69287.1748,1.11279.1748Z"/>
      <path class="uuid-25de640c-53ed-4e91-a993-e4694900c4d4" d="m101.43896,655.3584c.90479,0,1.73779.14453,2.49902.43359.76025.29004,1.41602.71191,1.9668,1.26758.55078.55469.97998,1.23633,1.28809,2.04395s.46191,1.72852.46191,2.76465c0,.26172-.01172.47852-.03516.65137s-.06543.30762-.12598.40527c-.06055.09863-.14209.16895-.24463.21094-.10303.04199-.23389.0625-.39209.0625h-8.87598c.10254,1.47461.49902,2.55762,1.18994,3.24805.69043.69043,1.60498,1.03613,2.74365,1.03613.56006,0,1.04346-.06543,1.44922-.19629.40625-.13086.76074-.27539,1.06396-.43359.30322-.15918.56934-.30371.79785-.43457.229-.12988.4502-.19531.66504-.19531.14014,0,.26123.02734.36426.08398.10254.05566.19092.13477.26611.2373l1.00781,1.26074c-.38281.44727-.81201.82324-1.28809,1.12695-.47607.30273-.97314.5459-1.49072.72754-.51807.18164-1.04541.31055-1.58203.38477-.53711.0752-1.05713.1123-1.56104.1123-.99902,0-1.92773-.16602-2.78613-.49707-.85889-.33105-1.60547-.82129-2.24023-1.46973s-1.13379-1.45117-1.49756-2.4082c-.36426-.95703-.54639-2.06543-.54639-3.3252,0-.97949.15869-1.90137.47607-2.76465s.77246-1.61426,1.36523-2.25391c.59229-.63965,1.31592-1.14551,2.16992-1.51953.854-.37305,1.81738-.55957,2.89111-.55957Zm.06982,2.47754c-1.00781,0-1.79688.28516-2.36621.85449s-.93311,1.37695-1.0918,2.42188h6.49609c0-.44824-.06104-.87012-.18213-1.2666-.12158-.39746-.30811-.74414-.56006-1.04297s-.56934-.53418-.95166-.70703c-.38281-.17285-.83105-.25977-1.34424-.25977Z"/>
      <path class="uuid-25de640c-53ed-4e91-a993-e4694900c4d4" d="m110.46826,674.63672v-19.05469h2.11377c.22412,0,.41504.05176.57422.1543.15869.10254.26123.26172.30811.47559l.27979,1.33008c.57861-.66211,1.24365-1.19922,1.99512-1.60938.75098-.41113,1.63086-.61621,2.63867-.61621.78418,0,1.50049.16309,2.14941.49023.64844.32617,1.2085.7998,1.67969,1.4209.47119.62012.83545,1.38574,1.09229,2.2959.25635.91016.38477,1.95312.38477,3.12891,0,1.07324-.14502,2.06738-.43408,2.98242-.28906.91406-.70215,1.70801-1.23877,2.37988-.53711.67188-1.18555,1.19629-1.94629,1.57422-.76074.37891-1.6123.56738-2.55469.56738-.81201,0-1.50049-.12402-2.06494-.37109-.56494-.24707-1.07129-.58984-1.51904-1.0293v5.88086h-3.45801Zm6.71973-16.59082c-.71875,0-1.33252.15234-1.84082.45508-.50879.30371-.98242.73047-1.4209,1.28125v6.44043c.39209.48535.81885.82324,1.28076,1.01465s.95898.28711,1.49121.28711c.52246,0,.99609-.09766,1.4209-.29395s.78418-.49512,1.07812-.89648.52002-.90723.67871-1.51855.23828-1.33203.23828-2.16309c0-.83984-.06787-1.55176-.20312-2.13477s-.3291-1.05762-.58105-1.4209c-.25195-.36426-.55762-.63086-.91699-.79883s-.76758-.25195-1.2251-.25195Z"/>
      <path class="uuid-25de640c-53ed-4e91-a993-e4694900c4d4" d="m129.9834,649.14258v20.80371h-3.45801v-20.80371h3.45801Z"/>
      <path class="uuid-25de640c-53ed-4e91-a993-e4694900c4d4" d="m145.14551,669.94629h-1.5542c-.32666,0-.58301-.04883-.77002-.14746-.18652-.09766-.32666-.2959-.41992-.59473l-.30811-1.02148c-.36377.32617-.7207.61328-1.0708.86035-.3501.24805-.71191.45508-1.08496.62305-.37354.16797-.77002.29395-1.18994.37793s-.88672.12598-1.3999.12598c-.60693,0-1.16699-.08203-1.68018-.24512-.51318-.16406-.95459-.41016-1.32275-.7373-.36914-.32812-.65625-.73535-.86133-1.22266-.20508-.48633-.30811-1.05371-.30811-1.69922,0-.54297.14258-1.0791.42725-1.6084s.7583-1.00684,1.4209-1.43262c.6626-.42676,1.54443-.78027,2.646-1.06055,1.10107-.28125,2.46875-.42188,4.10205-.42188v-.84668c0-.96777-.20312-1.68555-.60889-2.15137-.40625-.46484-.99658-.69824-1.771-.69824-.56006,0-1.02686.06543-1.3999.19629-.37354.13086-.69824.27832-.97314.44141-.27539.16309-.52979.31055-.76318.44043-.2334.13086-.48975.19629-.77002.19629-.2334,0-.43408-.06055-.60205-.18164s-.30322-.27051-.40576-.44824l-.62988-1.10645c1.65186-1.51172,3.64453-2.26758,5.97803-2.26758.83984,0,1.58887.1377,2.24658.41309.6582.27539,1.21582.6582,1.67334,1.14746.45703.49023.80469,1.07617,1.04297,1.75781.23779.68066.35693,1.42773.35693,2.23926v9.07227Zm-6.72021-2.15625c.35498,0,.68164-.03223.97998-.09668.29883-.06348.58105-.16016.84717-.28906s.52246-.28711.77002-.47559c.24707-.1875.49707-.41113.74902-.66797v-2.4043c-1.00781,0-1.85059.06348-2.52686.19043-.67676.12695-1.2207.28906-1.63135.48633s-.70215.42773-.875.69141c-.17236.2627-.25879.54883-.25879.85938,0,.61133.17969,1.04785.53906,1.31152s.82812.39453,1.40674.39453Z"/>
      <path class="uuid-25de640c-53ed-4e91-a993-e4694900c4d4" d="m148.54785,669.94629v-14.36426h2.11377c.44824,0,.74219.20996.88232.62988l.23779,1.13477c.28906-.29883.59473-.56934.91699-.8125.32178-.24219.6626-.45215,1.02197-.62988.35938-.17676.74414-.3125,1.15479-.40625.41064-.09277.85889-.13965,1.34424-.13965.78418,0,1.479.13281,2.08594.39844.60645.2666,1.11328.63965,1.51904,1.12012.40576.48145.71387,1.05469.92383,1.72266.20996.66699.31494,1.40234.31494,2.20508v9.1416h-3.45801v-9.1416c0-.87793-.20264-1.55664-.60889-2.03711-.40576-.48047-1.01465-.72168-1.82666-.72168-.59766,0-1.15771.13574-1.68018.40625-.52295.27051-1.01758.63965-1.48389,1.10645v10.3877h-3.45801Z"/>
      <path class="uuid-25de640c-53ed-4e91-a993-e4694900c4d4" d="m169.18359,670.16992c-1.24121,0-2.19775-.35156-2.87012-1.05664-.67188-.7041-1.00781-1.67773-1.00781-2.91895v-8.02246h-1.45605c-.18652,0-.34766-.06055-.48291-.18164s-.20312-.30273-.20312-.5459v-1.37207l2.31006-.37793.72803-3.91992c.03711-.18652.12354-.33105.25879-.43457.13525-.10254.30566-.15332.51123-.15332h1.79199v4.52148h3.77979v2.46387h-3.77979v7.78418c0,.44824.11182.79785.33594,1.0498s.52246.37891.896.37891c.21484,0,.39404-.02637.53906-.07715.14453-.05176.27051-.10547.37793-.16113.10742-.05664.20312-.10938.28711-.16113.08398-.05078.16797-.07715.25195-.07715.10254,0,.18652.02637.25195.07715.06543.05176.13525.12793.20996.23047l1.03613,1.68066c-.50391.41992-1.08301.7373-1.73584.95215-.65381.21387-1.33008.32129-2.03027.32129Z"/>
      <path class="uuid-25de640c-53ed-4e91-a993-e4694900c4d4" d="m181.23779,655.3584c.90479,0,1.73779.14453,2.49902.43359.76025.29004,1.41602.71191,1.9668,1.26758.55078.55469.97998,1.23633,1.28809,2.04395s.46191,1.72852.46191,2.76465c0,.26172-.01172.47852-.03516.65137s-.06543.30762-.12598.40527c-.06055.09863-.14209.16895-.24463.21094-.10303.04199-.23389.0625-.39209.0625h-8.87598c.10254,1.47461.49902,2.55762,1.18994,3.24805.69043.69043,1.60498,1.03613,2.74365,1.03613.56006,0,1.04346-.06543,1.44922-.19629.40625-.13086.76074-.27539,1.06396-.43359.30322-.15918.56934-.30371.79785-.43457.229-.12988.4502-.19531.66504-.19531.14014,0,.26123.02734.36426.08398.10254.05566.19092.13477.26611.2373l1.00781,1.26074c-.38281.44727-.81201.82324-1.28809,1.12695-.47607.30273-.97314.5459-1.49072.72754-.51807.18164-1.04541.31055-1.58203.38477-.53711.0752-1.05713.1123-1.56104.1123-.99902,0-1.92773-.16602-2.78613-.49707-.85889-.33105-1.60547-.82129-2.24023-1.46973s-1.13379-1.45117-1.49756-2.4082c-.36426-.95703-.54639-2.06543-.54639-3.3252,0-.97949.15869-1.90137.47607-2.76465s.77246-1.61426,1.36523-2.25391c.59229-.63965,1.31592-1.14551,2.16992-1.51953.854-.37305,1.81738-.55957,2.89111-.55957Zm.06982,2.47754c-1.00781,0-1.79688.28516-2.36621.85449s-.93311,1.37695-1.0918,2.42188h6.49609c0-.44824-.06104-.87012-.18213-1.2666-.12158-.39746-.30811-.74414-.56006-1.04297s-.56934-.53418-.95166-.70703c-.38281-.17285-.83105-.25977-1.34424-.25977Z"/>
      <path class="uuid-25de640c-53ed-4e91-a993-e4694900c4d4" d="m190.26709,669.94629v-14.36426h2.11377c.44824,0,.74219.20996.88232.62988l.22363,1.06445c.25195-.28027.51562-.53711.79102-.77051.27539-.23242.56934-.43359.88232-.60156.3125-.16797.64844-.30078,1.00781-.39941.35938-.09766.75342-.14648,1.18311-.14648.90527,0,1.64941.24512,2.23291.73535.58301.48926,1.01953,1.14062,1.30908,1.95215.22412-.47559.50391-.88379.83984-1.22461s.70459-.61816,1.10596-.83301.82812-.37305,1.28125-.47559c.45264-.10254.90723-.1543,1.36475-.1543.79346,0,1.49805.12109,2.11426.36426.61572.24219,1.13379.59668,1.55371,1.06348s.73975,1.03613.95898,1.70801.3291,1.44238.3291,2.31055v9.1416h-3.45801v-9.1416c0-.91504-.20068-1.60352-.60205-2.06543s-.98926-.69336-1.76367-.69336c-.35498,0-.68408.06152-.9873.18262s-.56934.2959-.79785.52441c-.229.22949-.40869.5166-.53906.86133-.13086.3457-.1958.74219-.1958,1.19043v9.1416h-3.47217v-9.1416c0-.96191-.19385-1.66113-.58105-2.10059-.38721-.43848-.95898-.6582-1.71484-.6582-.49512,0-.95898.12402-1.39307.37109-.43408.24805-.83789.58594-1.21094,1.01562v10.51367h-3.45801Z"/>
      <path class="uuid-25de640c-53ed-4e91-a993-e4694900c4d4" d="m217.56689,649.70215h3.16406c.32666,0,.59961.07715.81885.23145.21924.15332.36621.36133.44092.62305l3.44434,12.10938c.08398.29883.16064.62305.23096.97363.06982.34961.1377.7207.20312,1.1123.07422-.3916.15576-.7627.24463-1.1123.08887-.35059.18457-.6748.28711-.97363l3.97607-12.10938c.07471-.21484.22168-.41113.44092-.58789.21924-.17773.48779-.2666.80518-.2666h1.10596c.32666,0,.59717.07715.81201.23145.21436.15332.36377.36133.44775.62305l3.94824,12.10938c.20508.59766.38232,1.26074.53174,1.98828.06543-.36426.1333-.71387.20312-1.0498s.14209-.64844.21729-.93848l3.44385-12.10938c.06494-.2334.20996-.43457.43408-.60254.22363-.16797.49463-.25195.81201-.25195h2.95361l-6.28564,20.24414h-3.40234l-4.42383-13.83203c-.05615-.17676-.11426-.36816-.1748-.57422-.06104-.20508-.11914-.4248-.17529-.6582-.05566.2334-.11426.45312-.1748.6582-.06104.20605-.11914.39746-.17529.57422l-4.46582,13.83203h-3.40186l-6.28613-20.24414Z"/>
      <path class="uuid-25de640c-53ed-4e91-a993-e4694900c4d4" d="m252.74854,651.39648c0,.29883-.06055.5791-.18164.83984-.12207.26172-.28223.49023-.4834.68555-.2002.19629-.43652.35254-.70703.46973-.27051.11621-.55957.1748-.86719.1748-.29932,0-.58154-.05859-.84766-.1748-.26611-.11719-.49707-.27344-.69287-.46973-.19629-.19531-.35254-.42383-.46924-.68555-.1167-.26074-.1748-.54102-.1748-.83984,0-.30859.05811-.59766.1748-.86816s.27295-.50391.46924-.7002c.1958-.19629.42676-.35156.69287-.46875.26611-.11621.54834-.1748.84766-.1748.30762,0,.59668.05859.86719.1748.27051.11719.50684.27246.70703.46875.20117.19629.36133.42969.4834.7002.12109.27051.18164.55957.18164.86816Zm-.51758,4.18555v14.36426h-3.4585v-14.36426h3.4585Z"/>
      <path class="uuid-25de640c-53ed-4e91-a993-e4694900c4d4" d="m264.6626,658.38184c-.09375.14941-.19141.25488-.29395.31543s-.2334.09082-.3916.09082c-.16895,0-.34863-.04688-.53906-.13965-.19141-.09375-.41309-.19824-.66504-.31543-.25195-.11621-.53906-.22168-.86133-.31445-.32227-.09375-.70215-.14062-1.14062-.14062-.68164,0-1.21875.14551-1.61035.43457s-.58789.66699-.58789,1.13379c0,.30762.09961.56738.30078.77734.2002.20996.4668.39453.79785.55273.33105.15918.70703.30078,1.12695.42676s.84961.26367,1.28809.41309.86816.32031,1.28809.51074c.41992.19141.7959.43457,1.12695.72852s.59766.64648.79785,1.05664c.20117.41113.30078.90527.30078,1.48438,0,.69043-.12598,1.32715-.37793,1.91113-.25195.58301-.62012,1.08691-1.10547,1.51172s-1.08496.75586-1.79883.99414-1.5332.35645-2.45703.35645c-.49512,0-.97852-.04395-1.44922-.13281-.47168-.08887-.92383-.21191-1.3584-.37109-.43359-.1582-.83496-.34473-1.2041-.55957-.36816-.21484-.69238-.44824-.97266-.7002l.79785-1.31641c.10254-.1582.22461-.2793.36426-.36328s.31738-.12598.53223-.12598.41699.06055.6084.18164.41309.25195.66504.3916c.25195.14062.54883.27148.88965.39258.33984.12109.77148.18164,1.29492.18164.41016,0,.7627-.04883,1.05664-.14648.29395-.09863.53711-.22656.72852-.38574.19043-.1582.33105-.34277.41992-.55273.08789-.20996.13281-.42676.13281-.65039,0-.33594-.10059-.61133-.30078-.82617-.20117-.21484-.4668-.40137-.79883-.56055-.33105-.1582-.70898-.30078-1.13379-.42676s-.8584-.26367-1.30176-.41309-.87695-.32422-1.30176-.52441c-.4248-.20117-.80273-.45508-1.13379-.76367-.33203-.30762-.59766-.68555-.79883-1.13379-.2002-.44824-.30078-.98926-.30078-1.62402,0-.58789.11719-1.14746.35059-1.67969.23242-.53223.57617-.99609,1.02832-1.39355.45312-.39648,1.01758-.71387,1.69434-.95215.67676-.2373,1.45801-.35645,2.34473-.35645.98926,0,1.89062.16309,2.70215.49023.8125.32617,1.48828.75586,2.03027,1.28809l-.78418,1.24512Z"/>
      <path class="uuid-25de640c-53ed-4e91-a993-e4694900c4d4" d="m276.89795,658.38184c-.09375.14941-.19141.25488-.29395.31543s-.2334.09082-.3916.09082c-.16895,0-.34863-.04688-.53906-.13965-.19141-.09375-.41309-.19824-.66504-.31543-.25195-.11621-.53906-.22168-.86133-.31445-.32227-.09375-.70215-.14062-1.14062-.14062-.68164,0-1.21875.14551-1.61035.43457s-.58789.66699-.58789,1.13379c0,.30762.09961.56738.30078.77734.2002.20996.4668.39453.79785.55273.33105.15918.70703.30078,1.12695.42676s.84961.26367,1.28809.41309.86816.32031,1.28809.51074c.41992.19141.7959.43457,1.12695.72852s.59766.64648.79785,1.05664c.20117.41113.30078.90527.30078,1.48438,0,.69043-.12598,1.32715-.37793,1.91113-.25195.58301-.62012,1.08691-1.10547,1.51172s-1.08496.75586-1.79883.99414-1.5332.35645-2.45703.35645c-.49512,0-.97852-.04395-1.44922-.13281-.47168-.08887-.92383-.21191-1.3584-.37109-.43359-.1582-.83496-.34473-1.2041-.55957-.36816-.21484-.69238-.44824-.97266-.7002l.79785-1.31641c.10254-.1582.22461-.2793.36426-.36328s.31738-.12598.53223-.12598.41699.06055.6084.18164.41309.25195.66504.3916c.25195.14062.54883.27148.88965.39258.33984.12109.77148.18164,1.29492.18164.41016,0,.7627-.04883,1.05664-.14648.29395-.09863.53711-.22656.72852-.38574.19043-.1582.33105-.34277.41992-.55273.08789-.20996.13281-.42676.13281-.65039,0-.33594-.10059-.61133-.30078-.82617-.20117-.21484-.4668-.40137-.79883-.56055-.33105-.1582-.70898-.30078-1.13379-.42676s-.8584-.26367-1.30176-.41309-.87695-.32422-1.30176-.52441c-.4248-.20117-.80273-.45508-1.13379-.76367-.33203-.30762-.59766-.68555-.79883-1.13379-.2002-.44824-.30078-.98926-.30078-1.62402,0-.58789.11719-1.14746.35059-1.67969.23242-.53223.57617-.99609,1.02832-1.39355.45312-.39648,1.01758-.71387,1.69434-.95215.67676-.2373,1.45801-.35645,2.34473-.35645.98926,0,1.89062.16309,2.70215.49023.8125.32617,1.48828.75586,2.03027,1.28809l-.78418,1.24512Z"/>
      <path class="uuid-25de640c-53ed-4e91-a993-e4694900c4d4" d="m295.26611,649.70215v1.38574c0,.42969-.12109.82227-.36426,1.17676l-10.3877,14.67188h10.5v3.00977h-15.38574v-1.48438c0-.18652.03223-.36621.09766-.53906.06543-.17188.14941-.33301.25195-.48242l10.41602-14.74219h-10.10742v-2.99609h14.97949Z"/>
      <path class="uuid-25de640c-53ed-4e91-a993-e4694900c4d4" d="m303.41406,655.3584c.90527,0,1.73828.14453,2.49902.43359.76074.29004,1.41602.71191,1.9668,1.26758.55078.55469.98047,1.23633,1.28809,2.04395s.46191,1.72852.46191,2.76465c0,.26172-.01172.47852-.03516.65137s-.06543.30762-.12598.40527c-.06055.09863-.14258.16895-.24512.21094s-.2334.0625-.3916.0625h-8.87598c.10254,1.47461.49902,2.55762,1.18945,3.24805.69141.69043,1.60547,1.03613,2.74414,1.03613.56055,0,1.04297-.06543,1.44922-.19629s.76074-.27539,1.06445-.43359c.30273-.15918.56836-.30371.79785-.43457.22852-.12988.4502-.19531.66504-.19531.13965,0,.26074.02734.36328.08398.10254.05566.19141.13477.2666.2373l1.00781,1.26074c-.38281.44727-.8125.82324-1.28809,1.12695-.47559.30273-.97266.5459-1.49121.72754-.51758.18164-1.04492.31055-1.58203.38477-.53613.0752-1.05664.1123-1.56055.1123-.99902,0-1.92773-.16602-2.78613-.49707s-1.60547-.82129-2.23975-1.46973c-.63477-.64844-1.13379-1.45117-1.49805-2.4082-.36328-.95703-.5459-2.06543-.5459-3.3252,0-.97949.15918-1.90137.47656-2.76465.31641-.86328.77148-1.61426,1.36426-2.25391s1.31592-1.14551,2.16943-1.51953c.85449-.37305,1.81836-.55957,2.8916-.55957Zm.06934,2.47754c-1.00781,0-1.7959.28516-2.36523.85449s-.93359,1.37695-1.0918,2.42188h6.49512c0-.44824-.06055-.87012-.18164-1.2666-.12109-.39746-.30762-.74414-.55957-1.04297s-.56934-.53418-.95215-.70703-.83105-.25977-1.34473-.25977Z"/>
      <path class="uuid-25de640c-53ed-4e91-a993-e4694900c4d4" d="m316.64258,651.39648c0,.29883-.06055.5791-.18164.83984-.12207.26172-.28223.49023-.4834.68555-.2002.19629-.43652.35254-.70703.46973-.27051.11621-.55957.1748-.86816.1748-.29883,0-.58105-.05859-.84668-.1748-.26562-.11719-.49707-.27344-.69336-.46973-.19531-.19531-.35156-.42383-.46875-.68555-.11621-.26074-.1748-.54102-.1748-.83984,0-.30859.05859-.59766.1748-.86816.11719-.27051.27344-.50391.46875-.7002.19629-.19629.42773-.35156.69336-.46875.26562-.11621.54785-.1748.84668-.1748.30859,0,.59766.05859.86816.1748.27051.11719.50684.27246.70703.46875.20117.19629.36133.42969.4834.7002.12109.27051.18164.55957.18164.86816Zm-.51758,4.18555v14.36426h-3.45801v-14.36426h3.45801Z"/>
      <path class="uuid-25de640c-53ed-4e91-a993-e4694900c4d4" d="m324.74902,670.16992c-1.24219,0-2.19824-.35156-2.87012-1.05664-.67188-.7041-1.00781-1.67773-1.00781-2.91895v-8.02246h-1.45605c-.1875,0-.34863-.06055-.4834-.18164-.13574-.12109-.20312-.30273-.20312-.5459v-1.37207l2.31055-.37793.72754-3.91992c.03711-.18652.12402-.33105.25879-.43457.13574-.10254.30566-.15332.51074-.15332h1.79297v4.52148h3.7793v2.46387h-3.7793v7.78418c0,.44824.11133.79785.33594,1.0498.22363.25195.52246.37891.89551.37891.21484,0,.39453-.02637.53906-.07715.14453-.05176.27051-.10547.37793-.16113.10742-.05664.20312-.10938.28711-.16113.08398-.05078.16797-.07715.25195-.07715.10254,0,.18652.02637.25195.07715.06543.05176.13477.12793.20996.23047l1.03613,1.68066c-.50391.41992-1.08301.7373-1.73633.95215-.65332.21387-1.33008.32129-2.0293.32129Z"/>
      <path class="uuid-25de640c-53ed-4e91-a993-e4694900c4d4" d="m329.07422,649.70215h3.03809c.32715,0,.59277.0791.79785.23828.20605.1582.35938.36426.46191.61621l4.76074,12.34766c.1582.40137.30957.84277.45508,1.32324.14453.48047.28223.98633.41309,1.51855.21387-1.07324.48047-2.02051.79785-2.8418l4.74609-12.34766c.08398-.21484.23242-.41113.44727-.58789.21484-.17773.48145-.2666.79883-.2666h3.03711l-8.17578,20.24414h-3.40137l-8.17676-20.24414Z"/>
      <path class="uuid-25de640c-53ed-4e91-a993-e4694900c4d4" d="m359.4541,667.17383c.84961,0,1.58887-.07617,2.21875-.23047.63086-.1543,1.23047-.36621,1.7998-.63672v-3.68262h-2.53418c-.24316,0-.43457-.06738-.57422-.20312-.13965-.13477-.20996-.30078-.20996-.49707v-2.12793h6.73438v8.19043c-.51367.37305-1.04785.69824-1.60352.97266-.55566.27539-1.14746.50195-1.77832.67969-.62988.17676-1.30371.30957-2.02246.39844s-1.49316.13281-2.32422.13281c-1.47461,0-2.83301-.25586-4.07422-.76953s-2.31445-1.22754-3.21973-2.14258c-.90527-.91406-1.6123-2.00586-2.12109-3.27539s-.7627-2.65527-.7627-4.1582c0-1.52148.24707-2.91699.74219-4.18555.49414-1.26953,1.19629-2.36133,2.10645-3.27637s2.01367-1.62402,3.31152-2.12793c1.29688-.50391,2.75293-.75586,4.36816-.75586,1.65137,0,3.08203.24512,4.29004.73438,1.20898.49023,2.2334,1.12695,3.07324,1.91113l-1.0918,1.70801c-.21484.3457-.49902.51855-.85352.51855-.22461,0-.45312-.0752-.68652-.22461-.29883-.17676-.60449-.35449-.91699-.53125-.3125-.17773-.6582-.33203-1.03613-.46289-.37793-.12988-.80273-.2373-1.27344-.32129-.47168-.08398-1.01562-.12598-1.63184-.12598-.99805,0-1.90137.16797-2.70898.50391-.80664.33594-1.49512.81641-2.06445,1.44141-.56934.62598-1.00781,1.37695-1.31641,2.25488-.30762.87695-.46191,1.85645-.46191,2.93945,0,1.16699.16309,2.20508.49023,3.11523.32617.91016.78418,1.67773,1.37207,2.30273.58789.62598,1.28809,1.10352,2.09961,1.43555.8125.33105,1.69922.49609,2.66016.49609Z"/>
      <path class="uuid-25de640c-53ed-4e91-a993-e4694900c4d4" d="m15.75977,701.94629v-14.36426h2.11377c.44824,0,.74219.20996.88232.62988l.22363,1.06445c.25195-.28027.51562-.53711.79102-.77051.27539-.23242.56934-.43359.88232-.60156.3125-.16797.64844-.30078,1.00781-.39941.35938-.09766.75342-.14648,1.18311-.14648.90527,0,1.64941.24512,2.23291.73535.58301.48926,1.01953,1.14062,1.30908,1.95215.22412-.47559.50391-.88379.83984-1.22461s.70459-.61816,1.10596-.83301.82812-.37305,1.28125-.47559c.45264-.10254.90723-.1543,1.36475-.1543.79346,0,1.49805.12109,2.11426.36426.61572.24219,1.13379.59668,1.55371,1.06348s.73975,1.03613.95898,1.70801.3291,1.44238.3291,2.31055v9.1416h-3.45801v-9.1416c0-.91504-.20068-1.60352-.60205-2.06543s-.98926-.69336-1.76367-.69336c-.35498,0-.68408.06152-.9873.18262s-.56934.2959-.79785.52441c-.229.22949-.40869.5166-.53906.86133-.13086.3457-.1958.74219-.1958,1.19043v9.1416h-3.47217v-9.1416c0-.96191-.19385-1.66113-.58105-2.10059-.38721-.43848-.95898-.6582-1.71484-.6582-.49512,0-.95898.12402-1.39307.37109-.43408.24805-.83789.58594-1.21094,1.01562v10.51367h-3.45801Z"/>
      <path class="uuid-25de640c-53ed-4e91-a993-e4694900c4d4" d="m50.59131,701.94629h-1.5542c-.32666,0-.58301-.04883-.77002-.14746-.18652-.09766-.32666-.2959-.41992-.59473l-.30811-1.02148c-.36377.32617-.7207.61328-1.0708.86035-.3501.24805-.71191.45508-1.08496.62305-.37354.16797-.77002.29395-1.18994.37793s-.88672.12598-1.3999.12598c-.60693,0-1.16699-.08203-1.68018-.24512-.51318-.16406-.95459-.41016-1.32275-.7373-.36914-.32812-.65625-.73535-.86133-1.22266-.20508-.48633-.30811-1.05371-.30811-1.69922,0-.54297.14258-1.0791.42725-1.6084s.7583-1.00684,1.4209-1.43262c.6626-.42676,1.54443-.78027,2.646-1.06055,1.10107-.28125,2.46875-.42188,4.10205-.42188v-.84668c0-.96777-.20312-1.68555-.60889-2.15137-.40625-.46484-.99658-.69824-1.771-.69824-.56006,0-1.02686.06543-1.3999.19629-.37354.13086-.69824.27832-.97314.44141-.27539.16309-.52979.31055-.76318.44043-.2334.13086-.48975.19629-.77002.19629-.2334,0-.43408-.06055-.60205-.18164s-.30322-.27051-.40576-.44824l-.62988-1.10645c1.65186-1.51172,3.64453-2.26758,5.97803-2.26758.83984,0,1.58887.1377,2.24658.41309.6582.27539,1.21582.6582,1.67334,1.14746.45703.49023.80469,1.07617,1.04297,1.75781.23779.68066.35693,1.42773.35693,2.23926v9.07227Zm-6.72021-2.15625c.35498,0,.68164-.03223.97998-.09668.29883-.06348.58105-.16016.84717-.28906s.52246-.28711.77002-.47559c.24707-.1875.49707-.41113.74902-.66797v-2.4043c-1.00781,0-1.85059.06348-2.52686.19043-.67676.12695-1.2207.28906-1.63135.48633s-.70215.42773-.875.69141c-.17236.2627-.25879.54883-.25879.85938,0,.61133.17969,1.04785.53906,1.31152s.82812.39453,1.40674.39453Z"/>
      <path class="uuid-25de640c-53ed-4e91-a993-e4694900c4d4" d="m57.39551,694.54004l-4.71777-6.95801h3.33154c.25244,0,.43896.03516.56006.10547.12158.06934.229.18457.32227.34277l3.00977,4.80176c.04688-.1582.10498-.31738.17529-.47559.06982-.15918.15625-.31738.25879-.47656l2.42188-3.7793c.1123-.17773.229-.30859.3501-.39258s.27051-.12598.44824-.12598h3.17773l-4.73193,6.80469,4.92822,7.55957h-3.33203c-.25195,0-.45508-.06543-.60938-.19629-.15381-.12988-.28223-.2793-.38477-.44727l-3.05225-4.99805c-.08398.33594-.20068.61523-.34961.83984l-2.68799,4.1582c-.10303.1582-.229.30566-.37793.44043-.14941.13574-.33643.20312-.56006.20312h-3.09424l4.91406-7.40625Z"/>
      <path class="uuid-25de640c-53ed-4e91-a993-e4694900c4d4" d="m73.31299,683.39648c0,.29883-.06055.5791-.18164.83984-.12158.26172-.28271.49023-.4834.68555-.20068.19629-.43604.35254-.70703.46973-.27051.11621-.55957.1748-.86768.1748-.29883,0-.58105-.05859-.84717-.1748-.26611-.11719-.49707-.27344-.69287-.46973-.19629-.19531-.35254-.42383-.46924-.68555-.1167-.26074-.1748-.54102-.1748-.83984,0-.30859.05811-.59766.1748-.86816s.27295-.50391.46924-.7002c.1958-.19629.42676-.35156.69287-.46875.26611-.11621.54834-.1748.84717-.1748.30811,0,.59717.05859.86768.1748.271.11719.50635.27246.70703.46875s.36182.42969.4834.7002c.12109.27051.18164.55957.18164.86816Zm-.51807,4.18555v14.36426h-3.45801v-14.36426h3.45801Z"/>
      <path class="uuid-25de640c-53ed-4e91-a993-e4694900c4d4" d="m76.70117,701.94629v-14.36426h2.11377c.44824,0,.74219.20996.88232.62988l.22363,1.06445c.25195-.28027.51562-.53711.79102-.77051.27539-.23242.56934-.43359.88232-.60156.3125-.16797.64844-.30078,1.00781-.39941.35938-.09766.75342-.14648,1.18311-.14648.90527,0,1.64941.24512,2.23291.73535.58301.48926,1.01953,1.14062,1.30908,1.95215.22412-.47559.50391-.88379.83984-1.22461s.70459-.61816,1.10596-.83301.82812-.37305,1.28125-.47559c.45264-.10254.90723-.1543,1.36475-.1543.79346,0,1.49805.12109,2.11426.36426.61572.24219,1.13379.59668,1.55371,1.06348s.73975,1.03613.95898,1.70801.3291,1.44238.3291,2.31055v9.1416h-3.45801v-9.1416c0-.91504-.20068-1.60352-.60205-2.06543s-.98926-.69336-1.76367-.69336c-.35498,0-.68408.06152-.9873.18262s-.56934.2959-.79785.52441c-.229.22949-.40869.5166-.53906.86133-.13086.3457-.1958.74219-.1958,1.19043v9.1416h-3.47217v-9.1416c0-.96191-.19385-1.66113-.58105-2.10059-.38721-.43848-.95898-.6582-1.71484-.6582-.49512,0-.95898.12402-1.39307.37109-.43408.24805-.83789.58594-1.21094,1.01562v10.51367h-3.45801Z"/>
      <path class="uuid-25de640c-53ed-4e91-a993-e4694900c4d4" d="m111.5332,701.94629h-1.5542c-.32666,0-.58301-.04883-.77002-.14746-.18652-.09766-.32666-.2959-.41992-.59473l-.30811-1.02148c-.36377.32617-.7207.61328-1.0708.86035-.3501.24805-.71191.45508-1.08496.62305-.37354.16797-.77002.29395-1.18994.37793s-.88672.12598-1.3999.12598c-.60693,0-1.16699-.08203-1.68018-.24512-.51318-.16406-.95459-.41016-1.32275-.7373-.36914-.32812-.65625-.73535-.86133-1.22266-.20508-.48633-.30811-1.05371-.30811-1.69922,0-.54297.14258-1.0791.42725-1.6084s.7583-1.00684,1.4209-1.43262c.6626-.42676,1.54443-.78027,2.646-1.06055,1.10107-.28125,2.46875-.42188,4.10205-.42188v-.84668c0-.96777-.20312-1.68555-.60889-2.15137-.40625-.46484-.99658-.69824-1.771-.69824-.56006,0-1.02686.06543-1.3999.19629-.37354.13086-.69824.27832-.97314.44141-.27539.16309-.52979.31055-.76318.44043-.2334.13086-.48975.19629-.77002.19629-.2334,0-.43408-.06055-.60205-.18164s-.30322-.27051-.40576-.44824l-.62988-1.10645c1.65186-1.51172,3.64453-2.26758,5.97803-2.26758.83984,0,1.58887.1377,2.24658.41309.6582.27539,1.21582.6582,1.67334,1.14746.45703.49023.80469,1.07617,1.04297,1.75781.23779.68066.35693,1.42773.35693,2.23926v9.07227Zm-6.72021-2.15625c.35498,0,.68164-.03223.97998-.09668.29883-.06348.58105-.16016.84717-.28906s.52246-.28711.77002-.47559c.24707-.1875.49707-.41113.74902-.66797v-2.4043c-1.00781,0-1.85059.06348-2.52686.19043-.67676.12695-1.2207.28906-1.63135.48633s-.70215.42773-.875.69141c-.17236.2627-.25879.54883-.25879.85938,0,.61133.17969,1.04785.53906,1.31152s.82812.39453,1.40674.39453Z"/>
      <path class="uuid-25de640c-53ed-4e91-a993-e4694900c4d4" d="m118.6167,681.14258v20.80371h-3.45801v-20.80371h3.45801Z"/>
      <path class="uuid-25de640c-53ed-4e91-a993-e4694900c4d4" d="m127.96875,701.94629v-20.80371h3.45801v8.2041c.56885-.60742,1.21289-1.08984,1.93164-1.44922s1.55859-.53906,2.52002-.53906c.78418,0,1.50049.16113,2.14941.48242.64844.32227,1.2085.79102,1.67969,1.40723s.83545,1.37695,1.09229,2.28223c.25635.90527.38477,1.94629.38477,3.12207,0,1.07324-.14453,2.06738-.43408,2.98242-.28906.91406-.70215,1.70801-1.23877,2.37988-.53711.67188-1.18555,1.19629-1.94629,1.57422-.76074.37891-1.6123.56738-2.55469.56738-.43896,0-.84033-.04395-1.2041-.13281-.36426-.08887-.69531-.21191-.99414-.37109-.29883-.1582-.57617-.35254-.83301-.58105s-.50146-.4834-.73486-.7627l-.15381.96582c-.05615.24316-.15186.41504-.28711.51758-.13574.10352-.31982.1543-.55322.1543h-2.28174Zm6.71973-11.90039c-.71875,0-1.33203.15234-1.84082.45508-.50879.30371-.98242.73047-1.4209,1.28125v6.44043c.39209.48535.81885.82324,1.28076,1.01465s.96387.28711,1.50488.28711c.52295,0,.99414-.09766,1.41406-.29395s.77734-.49512,1.07129-.89648.52002-.90723.67871-1.51855.23828-1.33203.23828-2.16309c0-.83984-.06787-1.55176-.20312-2.13477s-.3291-1.05762-.58105-1.4209c-.25195-.36426-.55762-.63086-.91699-.79883s-.76758-.25195-1.2251-.25195Z"/>
      <path class="uuid-25de640c-53ed-4e91-a993-e4694900c4d4" d="m149.82275,687.3584c.90479,0,1.73779.14453,2.49902.43359.76025.29004,1.41602.71191,1.9668,1.26758.55078.55469.97998,1.23633,1.28809,2.04395s.46191,1.72852.46191,2.76465c0,.26172-.01172.47852-.03516.65137s-.06543.30762-.12598.40527c-.06055.09863-.14209.16895-.24463.21094-.10303.04199-.23389.0625-.39209.0625h-8.87598c.10254,1.47461.49902,2.55762,1.18994,3.24805.69043.69043,1.60498,1.03613,2.74365,1.03613.56006,0,1.04346-.06543,1.44922-.19629.40625-.13086.76074-.27539,1.06396-.43359.30322-.15918.56934-.30371.79785-.43457.229-.12988.4502-.19531.66504-.19531.14014,0,.26123.02734.36426.08398.10254.05566.19092.13477.26611.2373l1.00781,1.26074c-.38281.44727-.81201.82324-1.28809,1.12695-.47607.30273-.97314.5459-1.49072.72754-.51807.18164-1.04541.31055-1.58203.38477-.53711.0752-1.05713.1123-1.56104.1123-.99902,0-1.92773-.16602-2.78613-.49707-.85889-.33105-1.60547-.82129-2.24023-1.46973s-1.13379-1.45117-1.49756-2.4082c-.36426-.95703-.54639-2.06543-.54639-3.3252,0-.97949.15869-1.90137.47607-2.76465s.77246-1.61426,1.36523-2.25391c.59229-.63965,1.31592-1.14551,2.16992-1.51953.854-.37305,1.81738-.55957,2.89111-.55957Zm.06982,2.47754c-1.00781,0-1.79688.28516-2.36621.85449s-.93311,1.37695-1.0918,2.42188h6.49609c0-.44824-.06104-.87012-.18213-1.2666-.12158-.39746-.30811-.74414-.56006-1.04297s-.56934-.53418-.95166-.70703c-.38281-.17285-.83105-.25977-1.34424-.25977Z"/>
      <path class="uuid-25de640c-53ed-4e91-a993-e4694900c4d4" d="m167.37793,690.38184c-.09326.14941-.19141.25488-.29395.31543-.10303.06055-.2334.09082-.39209.09082-.16797,0-.34766-.04688-.53906-.13965-.19141-.09375-.41309-.19824-.66504-.31543-.25195-.11621-.53906-.22168-.86084-.31445-.32227-.09375-.70264-.14062-1.14111-.14062-.68115,0-1.21777.14551-1.60986.43457s-.58789.66699-.58789,1.13379c0,.30762.1001.56738.30078.77734s.4668.39453.79785.55273c.33154.15918.70703.30078,1.12695.42676.42041.12598.84961.26367,1.28809.41309.43896.14941.86816.32031,1.28809.51074.41992.19141.7959.43457,1.12695.72852s.59717.64648.79834,1.05664c.2002.41113.30078.90527.30078,1.48438,0,.69043-.12598,1.32715-.37793,1.91113-.25195.58301-.62109,1.08691-1.10596,1.51172-.48535.4248-1.08496.75586-1.79932.99414-.71387.23828-1.53271.35645-2.45703.35645-.49463,0-.97754-.04395-1.44873-.13281-.47168-.08887-.92383-.21191-1.35791-.37109-.43408-.1582-.83545-.34473-1.2041-.55957s-.69287-.44824-.97314-.7002l.79834-1.31641c.10254-.1582.22363-.2793.36377-.36328s.31738-.12598.53223-.12598c.21436,0,.41748.06055.60889.18164.19092.12109.41309.25195.66504.3916.25195.14062.54785.27148.88867.39258s.77246.18164,1.29541.18164c.41016,0,.7627-.04883,1.05664-.14648.29395-.09863.53662-.22656.72803-.38574.19141-.1582.33105-.34277.41992-.55273s.1333-.42676.1333-.65039c0-.33594-.10059-.61133-.30127-.82617s-.4668-.40137-.79785-.56055c-.33154-.1582-.70947-.30078-1.13379-.42676-.4248-.12598-.85889-.26367-1.30225-.41309s-.87744-.32422-1.30176-.52441c-.4248-.20117-.80322-.45508-1.13428-.76367-.33154-.30762-.59717-.68555-.79785-1.13379s-.30127-.98926-.30127-1.62402c0-.58789.1167-1.14746.3501-1.67969s.57617-.99609,1.0293-1.39355c.45215-.39648,1.01709-.71387,1.69385-.95215.67676-.2373,1.45801-.35645,2.34473-.35645.98926,0,1.89014.16309,2.70215.49023.81201.32617,1.48877.75586,2.03027,1.28809l-.78418,1.24512Z"/>
      <path class="uuid-25de640c-53ed-4e91-a993-e4694900c4d4" d="m181.18164,690.62012c-.10254.13086-.20312.2334-.30078.30859-.09814.07422-.24072.11133-.42725.11133-.17725,0-.3501-.05371-.51807-.16113-.16797-.10645-.36865-.22852-.60156-.36328-.23389-.13574-.51123-.25684-.83301-.36426-.32227-.10742-.72119-.16113-1.19727-.16113-.60693,0-1.13867.11035-1.59619.3291-.45703.21973-.8374.53418-1.14062.94531-.30371.41016-.52979.90723-.6792,1.49023-.14941.58398-.22412,1.24414-.22412,1.98145,0,.76562.08154,1.44629.24512,2.04395.16309.59766.39893,1.09863.70703,1.50488s.68115.71387,1.12012.92383c.43848.20996.93311.31543,1.48389.31543s.99609-.06738,1.33691-.20312c.34082-.13477.62793-.28418.86133-.44824.23291-.16309.43604-.3125.60889-.44824.17236-.13477.36621-.20215.58105-.20215.27979,0,.48975.10742.62988.32129l.99414,1.26074c-.38281.44727-.79834.82324-1.24609,1.12695-.44824.30273-.9126.5459-1.39307.72754-.48096.18164-.97803.31055-1.49121.38477-.51318.0752-1.02197.1123-1.52588.1123-.88672,0-1.72217-.16602-2.50586-.49707-.78418-.33105-1.46777-.81445-2.05127-1.44922-.58301-.63379-1.04541-1.41113-1.38574-2.33105-.34082-.91895-.51123-1.9668-.51123-3.14258,0-1.05469.15186-2.03223.45508-2.93262.30322-.90137.74902-1.68066,1.33691-2.33887.58838-.65723,1.31641-1.17285,2.18408-1.54688.86816-.37305,1.8667-.55957,2.99609-.55957,1.07324,0,2.01367.17285,2.8208.51758.80762.3457,1.5332.83984,2.17725,1.48438l-.91016,1.25977Z"/>
      <path class="uuid-25de640c-53ed-4e91-a993-e4694900c4d4" d="m184.44385,701.94629v-20.80371h3.45801v7.99414c.56006-.53223,1.17578-.96191,1.84766-1.28809.67236-.32715,1.46094-.49023,2.36621-.49023.78418,0,1.479.13281,2.08594.39844.60645.2666,1.11328.63965,1.51904,1.12012.40576.48145.71387,1.05469.92383,1.72266.20996.66699.31494,1.40234.31494,2.20508v9.1416h-3.45801v-9.1416c0-.87793-.20264-1.55664-.60889-2.03711-.40576-.48047-1.01465-.72168-1.82666-.72168-.59766,0-1.15771.13574-1.68018.40625-.52295.27051-1.01758.63965-1.48389,1.10645v10.3877h-3.45801Z"/>
      <path class="uuid-25de640c-53ed-4e91-a993-e4694900c4d4" d="m211.61768,701.94629h-1.5542c-.32666,0-.58301-.04883-.77002-.14746-.18652-.09766-.32666-.2959-.41992-.59473l-.30811-1.02148c-.36377.32617-.7207.61328-1.0708.86035-.3501.24805-.71191.45508-1.08496.62305-.37354.16797-.77002.29395-1.18994.37793s-.88672.12598-1.3999.12598c-.60693,0-1.16699-.08203-1.68018-.24512-.51318-.16406-.95459-.41016-1.32275-.7373-.36914-.32812-.65625-.73535-.86133-1.22266-.20508-.48633-.30811-1.05371-.30811-1.69922,0-.54297.14258-1.0791.42725-1.6084s.7583-1.00684,1.4209-1.43262c.6626-.42676,1.54443-.78027,2.646-1.06055,1.10107-.28125,2.46875-.42188,4.10205-.42188v-.84668c0-.96777-.20312-1.68555-.60889-2.15137-.40625-.46484-.99658-.69824-1.771-.69824-.56006,0-1.02686.06543-1.3999.19629-.37354.13086-.69824.27832-.97314.44141-.27539.16309-.52979.31055-.76318.44043-.2334.13086-.48975.19629-.77002.19629-.2334,0-.43408-.06055-.60205-.18164s-.30322-.27051-.40576-.44824l-.62988-1.10645c1.65186-1.51172,3.64453-2.26758,5.97803-2.26758.83984,0,1.58887.1377,2.24658.41309.6582.27539,1.21582.6582,1.67334,1.14746.45703.49023.80469,1.07617,1.04297,1.75781.23779.68066.35693,1.42773.35693,2.23926v9.07227Zm-6.146-18.08789c0,.26172-.05127.50586-.15381.73535-.10303.22852-.24512.42676-.42725.59473s-.39209.30078-.62988.39844c-.23828.09863-.48779.14746-.74902.14746-.25195,0-.49268-.04883-.72119-.14746-.22852-.09766-.43164-.23047-.60889-.39844s-.31738-.36621-.41992-.59473c-.10303-.22949-.15381-.47363-.15381-.73535,0-.27051.05078-.52539.15381-.7627.10254-.23828.24268-.44629.41992-.62305.17725-.17773.38037-.31738.60889-.41992.22852-.10352.46924-.1543.72119-.1543.26123,0,.51074.05078.74902.1543.23779.10254.44775.24219.62988.41992.18213.17676.32422.38477.42725.62305.10254.2373.15381.49219.15381.7627Zm-.57422,15.93164c.35498,0,.68164-.03223.97998-.09668.29883-.06348.58105-.16016.84717-.28906s.52246-.28711.77002-.47559c.24707-.1875.49707-.41113.74902-.66797v-2.4043c-1.00781,0-1.85059.06348-2.52686.19043-.67676.12695-1.2207.28906-1.63135.48633s-.70215.42773-.875.69141c-.17236.2627-.25879.54883-.25879.85938,0,.61133.17969,1.04785.53906,1.31152s.82812.39453,1.40674.39453Zm5.81006-15.93164c0,.26172-.05127.50586-.15381.73535-.10303.22852-.24268.42676-.41992.59473-.17773.16797-.38525.30078-.62305.39844-.23828.09863-.48779.14746-.74902.14746s-.50879-.04883-.74219-.14746c-.2334-.09766-.43604-.23047-.60889-.39844s-.31055-.36621-.41309-.59473c-.10254-.22949-.15381-.47363-.15381-.73535,0-.27051.05127-.52539.15381-.7627.10254-.23828.24023-.44629.41309-.62305.17285-.17773.37549-.31738.60889-.41992.2334-.10352.48096-.1543.74219-.1543s.51074.05078.74902.1543c.23779.10254.44531.24219.62305.41992.17725.17676.31689.38477.41992.62305.10254.2373.15381.49219.15381.7627Z"/>
      <path class="uuid-25de640c-53ed-4e91-a993-e4694900c4d4" d="m215.63525,701.94629v-11.75977l-1.24609-.19629c-.27051-.04688-.48779-.13965-.65088-.28027-.16309-.13965-.24512-.33594-.24512-.58789v-1.41406h2.14209v-1.06348c0-.82129.12354-1.55859.37109-2.21191.24707-.65332.60205-1.20898,1.06396-1.66602s1.02441-.80762,1.68701-1.05078c.6626-.24219,1.40918-.36328,2.24023-.36328.6626,0,1.27832.08887,1.84766.26562l-.06982,1.73633c-.01904.27051-.14502.43848-.37793.50391-.2334.06543-.50391.09766-.81201.09766-.41064,0-.77686.04492-1.09912.13281-.32178.08887-.59473.24316-.81885.46289-.22412.21875-.39453.50879-.51123.86719-.1167.35938-.1748.80566-.1748,1.33691v.95215h3.73779v2.46387h-3.62598v11.77441h-3.45801Z"/>
      <path class="uuid-25de640c-53ed-4e91-a993-e4694900c4d4" d="m229.55127,702.16992c-1.24121,0-2.19775-.35156-2.87012-1.05664-.67188-.7041-1.00781-1.67773-1.00781-2.91895v-8.02246h-1.45605c-.18652,0-.34766-.06055-.48291-.18164s-.20312-.30273-.20312-.5459v-1.37207l2.31006-.37793.72803-3.91992c.03711-.18652.12354-.33105.25879-.43457.13525-.10254.30566-.15332.51123-.15332h1.79199v4.52148h3.77979v2.46387h-3.77979v7.78418c0,.44824.11182.79785.33594,1.0498s.52246.37891.896.37891c.21484,0,.39404-.02637.53906-.07715.14453-.05176.27051-.10547.37793-.16113.10742-.05664.20312-.10938.28711-.16113.08398-.05078.16797-.07715.25195-.07715.10254,0,.18652.02637.25195.07715.06543.05176.13525.12793.20996.23047l1.03613,1.68066c-.50391.41992-1.08301.7373-1.73584.95215-.65381.21387-1.33008.32129-2.03027.32129Z"/>
      <path class="uuid-25de640c-53ed-4e91-a993-e4694900c4d4" d="m239.86914,683.39648c0,.29883-.06055.5791-.18164.83984-.12158.26172-.28271.49023-.4834.68555-.20068.19629-.43604.35254-.70703.46973-.27051.11621-.55957.1748-.86768.1748-.29883,0-.58105-.05859-.84717-.1748-.26611-.11719-.49707-.27344-.69287-.46973-.19629-.19531-.35254-.42383-.46924-.68555-.1167-.26074-.1748-.54102-.1748-.83984,0-.30859.05811-.59766.1748-.86816s.27295-.50391.46924-.7002c.1958-.19629.42676-.35156.69287-.46875.26611-.11621.54834-.1748.84717-.1748.30811,0,.59717.05859.86768.1748.271.11719.50635.27246.70703.46875s.36182.42969.4834.7002c.12109.27051.18164.55957.18164.86816Zm-.51807,4.18555v14.36426h-3.45801v-14.36426h3.45801Z"/>
      <path class="uuid-25de640c-53ed-4e91-a993-e4694900c4d4" d="m248.22705,687.33008c.61621,0,1.19482.06348,1.73633.18945.54004.12598,1.03613.31055,1.4834.55273h4.13086v1.28809c0,.21484-.05664.38281-.16797.50391-.11328.12109-.30469.20508-.57422.25195l-1.28906.23828c.09375.24219.16602.49902.21875.76953.05078.27148.07617.55566.07617.85449,0,.70898-.14258,1.35059-.42773,1.9248s-.67578,1.06152-1.17578,1.46289c-.49805.40137-1.0918.71191-1.77734.93066-.68604.21973-1.43066.3291-2.2334.3291-.5415,0-1.06885-.05078-1.58203-.15332-.44775.27246-.67188.57812-.67188.91602,0,.29199.13281.50586.39893.6416.26611.13672.61621.2334,1.05029.28906.43359.05664.92578.08496,1.47705.08496.55029,0,1.11475.02344,1.69385.07031.57812.04688,1.14258.12891,1.69336.24609s1.04297.30176,1.47852.55469c.43359.25293.7832.59668,1.04883,1.03223s.39844.99512.39844,1.67871c0,.63672-.15625,1.25391-.46875,1.85352s-.76562,1.13281-1.35742,1.60156c-.59375.46777-1.31836.84473-2.17773,1.13086-.85742.28516-1.83789.42773-2.93945.42773-1.0918,0-2.03906-.10449-2.8418-.31445s-1.46777-.49023-1.99512-.83984c-.52734-.35059-.92188-.75391-1.18311-1.21094-.26123-.45801-.3916-.93359-.3916-1.42871,0-.67188.20508-1.23633.61572-1.69336.41064-.45801.97998-.82129,1.70801-1.09277-.35498-.19531-.63916-.45703-.854-.7832-.21484-.32715-.32178-.75195-.32178-1.27441,0-.21484.03711-.43652.11182-.66504s.18896-.45508.34277-.67871c.1543-.22461.34766-.43652.58105-.6377.2334-.2002.50879-.37988.82617-.53809-.72803-.39258-1.2998-.91504-1.71484-1.56836-.41553-.65332-.62305-1.41895-.62305-2.2959,0-.70898.14209-1.35156.42676-1.9248.28467-.57422.68115-1.06445,1.18994-1.4707.50879-.40527,1.11084-.71582,1.80615-.93066s1.45361-.32227,2.2749-.32227Zm3.79395,15.21973c0-.28613-.08398-.51953-.25195-.7002-.16797-.18164-.39648-.32227-.68555-.42188-.28906-.10059-.62891-.17383-1.01514-.22168-.3877-.04785-.79834-.07129-1.23242-.07129h-1.34375c-.46191,0-.90771-.05176-1.33691-.1543-.39209.21484-.70703.46875-.94531.7627-.23779.29395-.35693.63184-.35693,1.01465,0,.25293.06299.48828.18896.70703.12598.21973.32666.4082.60205.56738.27539.1582.63232.28223,1.07129.37109.43848.08887.9751.13281,1.60986.13281.64404,0,1.19922-.0498,1.66602-.15039.46729-.09961.85205-.2373,1.15479-.41406s.52539-.38574.66602-.62891c.13867-.24316.20898-.50781.20898-.79297Zm-3.79395-8.13574c.4292,0,.80273-.05762,1.12012-.1748.31738-.11621.58105-.27734.79102-.4834.20996-.20508.36914-.45215.47656-.74121s.16016-.60742.16016-.95215c0-.70898-.21289-1.27148-.63672-1.6875-.4248-.41504-1.06201-.62305-1.91113-.62305s-1.48633.20801-1.91064.62305c-.4248.41602-.63721.97852-.63721,1.6875,0,.33594.05371.64844.16113.9375.10693.29004.26562.53906.47607.74902.20996.20996.47559.37402.79785.49023.32178.11719.69287.1748,1.11279.1748Z"/>
      <path class="uuid-25de640c-53ed-4e91-a993-e4694900c4d4" d="m262.46533,702.16992c-1.24219,0-2.19824-.35156-2.87012-1.05664-.67188-.7041-1.00781-1.67773-1.00781-2.91895v-8.02246h-1.45605c-.1875,0-.34863-.06055-.4834-.18164-.13574-.12109-.20312-.30273-.20312-.5459v-1.37207l2.31055-.37793.72754-3.91992c.03711-.18652.12402-.33105.25879-.43457.13574-.10254.30566-.15332.51074-.15332h1.79297v4.52148h3.7793v2.46387h-3.7793v7.78418c0,.44824.11133.79785.33594,1.0498.22363.25195.52246.37891.89551.37891.21484,0,.39453-.02637.53906-.07715.14453-.05176.27051-.10547.37793-.16113.10742-.05664.20312-.10938.28711-.16113.08398-.05078.16797-.07715.25195-.07715.10254,0,.18652.02637.25195.07715.06543.05176.13477.12793.20996.23047l1.03613,1.68066c-.50391.41992-1.08301.7373-1.73633.95215-.65332.21387-1.33008.32129-2.0293.32129Z"/>
      <path class="uuid-25de640c-53ed-4e91-a993-e4694900c4d4" d="m274.02783,701.94629v-20.80371h3.45801v8.2041c.56934-.60742,1.21387-1.08984,1.93262-1.44922s1.55859-.53906,2.51953-.53906c.78418,0,1.5.16113,2.14941.48242.64844.32227,1.20801.79102,1.67969,1.40723s.83496,1.37695,1.0918,2.28223.38574,1.94629.38574,3.12207c0,1.07324-.14551,2.06738-.43457,2.98242-.28906.91406-.70215,1.70801-1.23926,2.37988-.53613.67188-1.18457,1.19629-1.94531,1.57422-.76074.37891-1.6123.56738-2.55566.56738-.43848,0-.83984-.04395-1.2041-.13281-.36328-.08887-.69531-.21191-.99316-.37109-.29883-.1582-.57715-.35254-.83301-.58105-.25684-.22852-.50195-.4834-.73535-.7627l-.1543.96582c-.05566.24316-.15137.41504-.28711.51758-.13477.10352-.31934.1543-.55273.1543h-2.28223Zm6.7207-11.90039c-.71875,0-1.33301.15234-1.8418.45508-.50879.30371-.98242.73047-1.4209,1.28125v6.44043c.39258.48535.81934.82324,1.28125,1.01465s.96387.28711,1.50488.28711c.52246,0,.99414-.09766,1.41406-.29395s.77734-.49512,1.07129-.89648.52051-.90723.67871-1.51855c.15918-.61133.23828-1.33203.23828-2.16309,0-.83984-.06836-1.55176-.20312-2.13477-.13574-.58301-.3291-1.05762-.58105-1.4209-.25195-.36426-.55762-.63086-.91699-.79883s-.76758-.25195-1.22461-.25195Z"/>
      <path class="uuid-25de640c-53ed-4e91-a993-e4694900c4d4" d="m294.146,683.39648c0,.29883-.06055.5791-.18164.83984-.12207.26172-.28223.49023-.4834.68555-.2002.19629-.43652.35254-.70703.46973-.27051.11621-.55957.1748-.86816.1748-.29883,0-.58105-.05859-.84668-.1748-.26562-.11719-.49707-.27344-.69336-.46973-.19531-.19531-.35156-.42383-.46875-.68555-.11621-.26074-.1748-.54102-.1748-.83984,0-.30859.05859-.59766.1748-.86816.11719-.27051.27344-.50391.46875-.7002.19629-.19629.42773-.35156.69336-.46875.26562-.11621.54785-.1748.84668-.1748.30859,0,.59766.05859.86816.1748.27051.11719.50684.27246.70703.46875.20117.19629.36133.42969.4834.7002.12109.27051.18164.55957.18164.86816Zm-.51758,4.18555v14.36426h-3.45801v-14.36426h3.45801Z"/>
      <path class="uuid-25de640c-53ed-4e91-a993-e4694900c4d4" d="m306.05957,690.38184c-.09375.14941-.19141.25488-.29395.31543s-.2334.09082-.3916.09082c-.16895,0-.34863-.04688-.53906-.13965-.19141-.09375-.41309-.19824-.66504-.31543-.25195-.11621-.53906-.22168-.86133-.31445-.32227-.09375-.70215-.14062-1.14062-.14062-.68164,0-1.21875.14551-1.61035.43457s-.58789.66699-.58789,1.13379c0,.30762.09961.56738.30078.77734.2002.20996.4668.39453.79785.55273.33105.15918.70703.30078,1.12695.42676s.84961.26367,1.28809.41309.86816.32031,1.28809.51074c.41992.19141.7959.43457,1.12695.72852s.59766.64648.79785,1.05664c.20117.41113.30078.90527.30078,1.48438,0,.69043-.12598,1.32715-.37793,1.91113-.25195.58301-.62012,1.08691-1.10547,1.51172s-1.08496.75586-1.79883.99414-1.5332.35645-2.45703.35645c-.49512,0-.97852-.04395-1.44922-.13281-.47168-.08887-.92334-.21191-1.35791-.37109-.43359-.1582-.83496-.34473-1.2041-.55957-.36816-.21484-.69238-.44824-.97266-.7002l.79785-1.31641c.10254-.1582.22461-.2793.36426-.36328s.31738-.12598.53223-.12598.41699.06055.6084.18164.41309.25195.66455.3916c.25195.14062.54883.27148.88965.39258.33984.12109.77148.18164,1.29492.18164.41016,0,.7627-.04883,1.05664-.14648.29395-.09863.53711-.22656.72852-.38574.19043-.1582.33105-.34277.41992-.55273.08789-.20996.13281-.42676.13281-.65039,0-.33594-.10059-.61133-.30078-.82617-.20117-.21484-.4668-.40137-.79883-.56055-.33105-.1582-.70898-.30078-1.13379-.42676s-.8584-.26367-1.30176-.41309-.87695-.32422-1.30127-.52441c-.4248-.20117-.80273-.45508-1.13379-.76367-.33203-.30762-.59766-.68555-.79883-1.13379-.2002-.44824-.30078-.98926-.30078-1.62402,0-.58789.11719-1.14746.35059-1.67969.23242-.53223.57617-.99609,1.02832-1.39355.45312-.39648,1.01709-.71387,1.69385-.95215.67676-.2373,1.45801-.35645,2.34473-.35645.98926,0,1.89062.16309,2.70215.49023.8125.32617,1.48828.75586,2.03027,1.28809l-.78418,1.24512Z"/>
      <path class="uuid-25de640c-53ed-4e91-a993-e4694900c4d4" d="m309.50293,690.06055c0-.28906.05371-.56445.16113-.82617s.25684-.48535.44824-.67188c.19043-.18652.41699-.33594.67871-.44824.26074-.1123.54102-.16797.83984-.16797.28906,0,.56445.05566.82617.16797.26074.1123.48535.26172.67188.44824s.33594.41016.44824.67188c.11133.26172.16797.53711.16797.82617,0,.29883-.05664.57617-.16797.83301-.1123.25684-.26172.47852-.44824.66504s-.41113.33398-.67188.44043c-.26172.10742-.53711.16113-.82617.16113-.29883,0-.5791-.05371-.83984-.16113-.26172-.10645-.48828-.25391-.67871-.44043-.19141-.18652-.34082-.4082-.44824-.66504s-.16113-.53418-.16113-.83301Zm0,9.98145c0-.28906.05371-.56445.16113-.82617.10742-.26074.25684-.48438.44824-.67188.19043-.18652.41699-.33594.67871-.44727.26074-.1123.54102-.16797.83984-.16797.28906,0,.56445.05566.82617.16797.26074.11133.48535.26074.67188.44727.18652.1875.33594.41113.44824.67188.11133.26172.16797.53711.16797.82617,0,.29883-.05664.57715-.16797.83301-.1123.25684-.26172.47852-.44824.66504-.18652.1875-.41113.33398-.67188.44141-.26172.10742-.53711.16113-.82617.16113-.29883,0-.5791-.05371-.83984-.16113-.26172-.10742-.48828-.25391-.67871-.44141-.19141-.18652-.34082-.4082-.44824-.66504-.10742-.25586-.16113-.53418-.16113-.83301Z"/>
    </g>
    <text class="uuid-40c20495-7448-45ca-8d4b-a03262d11659" transform="translate(13.91135 551.07135)"><tspan x="0" y="0">#IchBin</tspan></text>
    <text class="uuid-bb6eb407-0a3d-4e39-953a-253e58d324b5" transform="translate(314.07626 29.20868)"><tspan x="0" y="0">Mit</tspan><tspan class="uuid-81f757d5-5587-4f0b-ad74-b91baa0d5166" x="18.58789" y="0"> </tspan><tspan x="23.60791" y="0">diesem</tspan><tspan class="uuid-8abf46c5-b78c-436f-95d0-7cf7fbfd014e" x="61.02393" y="0"> </tspan><tspan x="66.04443" y="0">Plakat</tspan><tspan class="uuid-81f757d5-5587-4f0b-ad74-b91baa0d5166" x="99.37939" y="0"> </tspan><tspan x="104.39941" y="0">mchte</tspan><tspan class="uuid-81f757d5-5587-4f0b-ad74-b91baa0d5166" x="143.96338" y="0"> </tspan><tspan x="148.9834" y="0">ich</tspan><tspan class="uuid-8abf46c5-b78c-436f-95d0-7cf7fbfd014e" x="164.33105" y="0"> </tspan><tspan x="169.35156" y="0">auf</tspan><tspan class="uuid-81f757d5-5587-4f0b-ad74-b91baa0d5166" x="186.15137" y="0"> </tspan><tspan x="191.17139" y="0">die</tspan><tspan class="uuid-81f757d5-5587-4f0b-ad74-b91baa0d5166" x="207.23926" y="0"> </tspan><tspan x="212.25928" y="0">prekren </tspan><tspan x="0" y="14.40039">Arbeitsumstnde</tspan><tspan class="uuid-42b84f5c-a275-415c-befc-c5e0f09c21d7" x="90.70801" y="14.40039"> </tspan><tspan x="93.42578" y="14.40039">der</tspan><tspan class="uuid-42b84f5c-a275-415c-befc-c5e0f09c21d7" x="111.25732" y="14.40039"> </tspan><tspan x="113.9751" y="14.40039">zahlreichen</tspan><tspan class="uuid-42b84f5c-a275-415c-befc-c5e0f09c21d7" x="174.77832" y="14.40039"> </tspan><tspan x="177.49609" y="14.40039">Mitarbeitenden </tspan><tspan x="0" y="28.80029">des</tspan><tspan class="uuid-8383f594-23b4-41b2-bb14-139becc4eabc" x="18.2041" y="28.80029"> </tspan><tspan x="29.61426" y="28.80029">Mittelbaus</tspan><tspan class="uuid-8383f594-23b4-41b2-bb14-139becc4eabc" x="86.70898" y="28.80029"> </tspan><tspan x="98.11914" y="28.80029">an</tspan><tspan class="uuid-f3d15cf3-70d1-44e6-8567-56063b5a7ae3" x="110.875" y="28.80029"> </tspan><tspan x="122.28564" y="28.80029">deutschen</tspan><tspan class="uuid-8383f594-23b4-41b2-bb14-139becc4eabc" x="176.87207" y="28.80029"> </tspan><tspan x="188.28223" y="28.80029">Uni</tspan><tspan class="uuid-57ca65c3-aca1-4ef2-a51a-0ee55de8b4c1" x="206.78564" y="28.80029">v</tspan><tspan x="212.77393" y="28.80029">ersitten </tspan><tspan x="0" y="43.2002">aufmerksam</tspan><tspan class="uuid-31db1e76-4aa4-4982-9dba-55ecbb167f3a" x="65.20752" y="43.2002"> </tspan><tspan class="uuid-e591e32d-1bfd-4e5d-b397-5d1a8b99d72e" x="71.76074" y="43.2002">machen,</tspan><tspan class="uuid-5b8c91da-9e89-42ba-8990-64ad7d65103e" x="115.47656" y="43.2002"> </tspan><tspan x="122.0293" y="43.2002">die</tspan><tspan class="uuid-31db1e76-4aa4-4982-9dba-55ecbb167f3a" x="138.09717" y="43.2002"> </tspan><tspan x="144.65039" y="43.2002">auch</tspan><tspan class="uuid-31db1e76-4aa4-4982-9dba-55ecbb167f3a" x="169.68164" y="43.2002"> </tspan><tspan x="176.23486" y="43.2002">mich</tspan><tspan class="uuid-5b8c91da-9e89-42ba-8990-64ad7d65103e" x="201.43457" y="43.2002"> </tspan><tspan x="207.9873" y="43.2002">betreffen. </tspan><tspan x="0" y="57.6001">Nach</tspan><tspan class="uuid-bd2d4dfd-ab2a-4b65-b220-4d6769f091fa" x="27.43164" y="57.6001"> </tspan><tspan x="31.95654" y="57.6001">dem</tspan><tspan class="uuid-bd2d4dfd-ab2a-4b65-b220-4d6769f091fa" x="54.8042" y="57.6001"> </tspan><tspan x="59.3291" y="57.6001">neuen</tspan><tspan class="uuid-c8a6f11c-ef0a-4889-a176-48036185bb1c" x="91.9209" y="57.6001"> </tspan><tspan x="96.44531" y="57.6001">#Wiss</tspan><tspan class="uuid-4f9cbec8-4368-42df-a957-98455f8cff92" x="129.12109" y="57.6001">Z</tspan><tspan x="136.38086" y="57.6001">eit</tspan><tspan class="uuid-24e118ad-a41d-45a6-8432-da816f7acd37" x="150.2168" y="57.6001">V</tspan><tspan class="uuid-bf282948-6b91-424d-8b6f-9885e18816f1" x="158.06494" y="57.6001">G</tspan><tspan class="uuid-b1a622c3-2c65-4c9a-bf9d-98da4774402c" x="166.87354" y="57.6001"> </tspan><tspan x="171.39746" y="57.6001">soll</tspan><tspan class="uuid-645f2503-3949-4e4d-88d3-b04d77efc9e1" x="189.4209" y="57.6001"> </tspan><tspan x="193.94678" y="57.6001">die</tspan><tspan class="uuid-645f2503-3949-4e4d-88d3-b04d77efc9e1" x="210.01416" y="57.6001"> </tspan><tspan x="214.54004" y="57.6001">geplante </tspan><tspan x="0" y="72.00049">Beschftigungsmglich</tspan><tspan class="uuid-a32aed4c-dec0-4a20-abf2-07ba007bd33e" x="121.10205" y="72.00049">k</tspan><tspan x="127.02979" y="72.00049">eit</tspan><tspan class="uuid-6b68c1ac-12b7-4acd-990e-79a074ceff79" x="140.86572" y="72.00049"> </tspan><tspan x="148.84375" y="72.00049">nach</tspan><tspan class="uuid-6b68c1ac-12b7-4acd-990e-79a074ceff79" x="173.875" y="72.00049"> </tspan><tspan x="181.85303" y="72.00049">Abschluss</tspan><tspan class="uuid-9e318b7e-0771-438a-85da-e5521e72dde1" x="234.36426" y="72.00049"> </tspan><tspan x="242.3418" y="72.00049">der </tspan><tspan x="43.07324" y="86.40039">Dissertation auf 3 Jahre </tspan><tspan class="uuid-57ca65c3-aca1-4ef2-a51a-0ee55de8b4c1" x="170.40186" y="86.40039">v</tspan><tspan x="176.39014" y="86.40039">erkrzt werden.</tspan></text>
  </g>
</svg>